<?xml version="1.0" encoding="UTF-8"?>
<svg version="1.1" xmlns="http://www.w3.org/2000/svg" width="500" height="500">
<path d="M0 0 C165 0 330 0 500 0 C500 165 500 330 500 500 C335 500 170 500 0 500 C0 335 0 170 0 0 Z " fill="#082121" transform="translate(0,0)"/>
<path d="M0 0 C1.67745682 0.63903117 3.34561387 1.30341637 5 2 C9.15405674 2.28838457 9.15405674 2.28838457 13 1 C10.18101126 7.4652894 4.72985686 14.49896004 -1.8828125 17.16015625 C-4.28328916 17.62178638 -6.55851763 17.93246964 -9 18 C-8.38253906 18.66644531 -7.76507813 19.33289063 -7.12890625 20.01953125 C-1.17626615 26.49767078 4.49945564 33.12946988 10 40 C10.60585938 40.72574219 11.21171875 41.45148438 11.8359375 42.19921875 C24.70294744 57.94820603 29.90305666 73.7065354 28 94 C27.4779536 96.41985146 26.79698363 98.65032715 26 101 C25.36610352 100.97905273 24.73220703 100.95810547 24.07910156 100.93652344 C9.42583661 100.51603381 -2.79010083 100.3936414 -15.3125 108.8984375 C-17.42444886 110.27707079 -19.63640355 111.14051038 -22 112 C-22.495 112.495 -22.495 112.495 -23 113 C-24.66617115 113.04063832 -26.33388095 113.042721 -28 113 C-27.97002174 111.98761261 -27.97002174 111.98761261 -27.93943787 110.95477295 C-27.73914141 103.88142116 -27.60410473 96.80888406 -27.50561523 89.73339844 C-27.46056676 87.0989506 -27.39930687 84.4647251 -27.32104492 81.83105469 C-25.99847031 64.61675687 -25.99847031 64.61675687 -32.47265625 49.390625 C-33.95835463 47.90331825 -35.46204204 46.43320143 -37 45 C-38.01690458 41.94928627 -38.12902823 39.8605438 -38.1328125 36.66796875 C-38.13474609 35.09885742 -38.13474609 35.09885742 -38.13671875 33.49804688 C-38.13285156 32.40556641 -38.12898437 31.31308594 -38.125 30.1875 C-38.12886719 29.10662109 -38.13273438 28.02574219 -38.13671875 26.91210938 C-38.13542969 25.86216797 -38.13414062 24.81222656 -38.1328125 23.73046875 C-38.13168457 22.77551514 -38.13055664 21.82056152 -38.12939453 20.83666992 C-37.99204104 17.82551854 -37.55111663 14.9610889 -37 12 C-36.01 12 -35.02 12 -34 12 C-34 21.24 -34 30.48 -34 40 C-33.34 40.33 -32.68 40.66 -32 41 C-32.00523682 40.19256348 -32.01047363 39.38512695 -32.01586914 38.55322266 C-32.03659929 34.91048962 -32.04964749 31.26776898 -32.0625 27.625 C-32.07087891 26.35398438 -32.07925781 25.08296875 -32.08789062 23.7734375 C-32.09111328 22.56171875 -32.09433594 21.35 -32.09765625 20.1015625 C-32.10289307 18.98088379 -32.10812988 17.86020508 -32.11352539 16.70556641 C-32 14 -32 14 -31 12 C-30.34 12 -29.68 12 -29 12 C-29 21.57 -29 31.14 -29 41 C-28.34 41 -27.68 41 -27 41 C-26.67 27.8 -26.34 14.6 -26 1 C-21.46213776 3.26893112 -20.05321843 5.09866534 -17 9 C-16.60167969 8.51789063 -16.20335937 8.03578125 -15.79296875 7.5390625 C-15.26316406 6.90742187 -14.73335938 6.27578125 -14.1875 5.625 C-13.66542969 4.99851562 -13.14335937 4.37203125 -12.60546875 3.7265625 C-8.81761989 -0.34698785 -5.2657754 -0.53901638 0 0 Z " fill="#122620" transform="translate(275,113)"/>
<path d="M0 0 C4.02069425 -0.08765069 8.0411401 -0.14061018 12.0625 -0.1875 C13.7630957 -0.22520508 13.7630957 -0.22520508 15.49804688 -0.26367188 C22.80220247 -0.32755662 27.87668438 0.00890629 33.90625 4.3828125 C36.22665459 7.81369642 35.67642228 12.07299285 35 16 C32.75266476 19.05887297 31.26036208 20.55717008 27.6875 21.8125 C26.8521875 21.9053125 26.8521875 21.9053125 26 22 C26 22.66 26 23.32 26 24 C27.051875 24.061875 28.10375 24.12375 29.1875 24.1875 C33.66337256 25.14137448 35.12282867 26.53046987 38 30 C39.53214888 33.06429776 39.22938548 35.6165642 39 39 C37.18201807 43.11438017 34.69425713 45.47709269 31 48 C27.57333682 49.17016096 24.30219015 49.11463297 20.703125 49.09765625 C19.49785156 49.09443359 18.29257812 49.09121094 17.05078125 49.08789062 C15.79652344 49.07951172 14.54226563 49.07113281 13.25 49.0625 C11.98027344 49.05798828 10.71054687 49.05347656 9.40234375 49.04882812 C6.26818164 49.03704556 3.13411459 49.02059416 0 49 C0.33 48.34 0.66 47.68 1 47 C2.32 47 3.64 47 5 47 C5 32.48 5 17.96 5 3 C3.35 2.67 1.7 2.34 0 2 C0 1.34 0 0.68 0 0 Z " fill="#E0A464" transform="translate(266,266)"/>
<path d="M0 0 C6.10006105 3.05003053 10.5542781 8.12123392 12.9609375 14.578125 C13.54588744 17.40962182 13.83038425 20.1128449 14 23 C14.07992188 24.22589844 14.15984375 25.45179688 14.2421875 26.71484375 C14.54018634 35.4882803 14.01136304 42.31005521 8.17578125 49.1328125 C1.39699001 57.24536186 2.14467195 64.96347999 3 75 C3.37639301 79.00433597 3.80950787 83.00105045 4.27807617 86.99560547 C5.14860051 94.61289106 5.67152837 102.34655171 5 110 C3 112 3 112 0.375 112.125 C-0.40875 112.08375 -1.1925 112.0425 -2 112 C-1.97002174 110.98761261 -1.97002174 110.98761261 -1.93943787 109.95477295 C-1.73914141 102.88142116 -1.60410473 95.80888406 -1.50561523 88.73339844 C-1.46056676 86.0989506 -1.39930687 83.4647251 -1.32104492 80.83105469 C0.00152969 63.61675687 0.00152969 63.61675687 -6.47265625 48.390625 C-7.95835463 46.90331825 -9.46204204 45.43320143 -11 44 C-12.01690458 40.94928627 -12.12902823 38.8605438 -12.1328125 35.66796875 C-12.13474609 34.09885742 -12.13474609 34.09885742 -12.13671875 32.49804688 C-12.13285156 31.40556641 -12.12898437 30.31308594 -12.125 29.1875 C-12.12886719 28.10662109 -12.13273438 27.02574219 -12.13671875 25.91210938 C-12.13542969 24.86216797 -12.13414062 23.81222656 -12.1328125 22.73046875 C-12.13168457 21.77551514 -12.13055664 20.82056152 -12.12939453 19.83666992 C-11.99204104 16.82551854 -11.55111663 13.9610889 -11 11 C-10.01 11 -9.02 11 -8 11 C-8 20.24 -8 29.48 -8 39 C-7.34 39.33 -6.68 39.66 -6 40 C-6.00523682 39.19256348 -6.01047363 38.38512695 -6.01586914 37.55322266 C-6.03659929 33.91048962 -6.04964749 30.26776898 -6.0625 26.625 C-6.07087891 25.35398438 -6.07925781 24.08296875 -6.08789062 22.7734375 C-6.09111328 21.56171875 -6.09433594 20.35 -6.09765625 19.1015625 C-6.10289307 17.98088379 -6.10812988 16.86020508 -6.11352539 15.70556641 C-6 13 -6 13 -5 11 C-4.34 11 -3.68 11 -3 11 C-3 20.57 -3 30.14 -3 40 C-2.34 40 -1.68 40 -1 40 C-0.67 26.8 -0.34 13.6 0 0 Z " fill="#997A3B" transform="translate(249,114)"/>
<path d="M0 0 C6.30275538 4.9617436 11.04888061 10.71622637 16 17 C16.60972656 17.7321875 17.21945312 18.464375 17.84765625 19.21875 C30.72396237 34.94016248 35.90072255 50.73142542 34 71 C33.4779536 73.41985146 32.79698363 75.65032715 32 78 C31.36610352 77.97905273 30.73220703 77.95810547 30.07910156 77.93652344 C15.41076218 77.51560124 2.89459018 77.24460917 -9.4765625 86.14453125 C-9.97929687 86.42683594 -10.48203125 86.70914063 -11 87 C-11.66 86.67 -12.32 86.34 -13 86 C-12.2265625 85.40574219 -11.453125 84.81148438 -10.65625 84.19921875 C0.76810741 75.20311173 9.86799326 64.42917536 12.6171875 49.69140625 C13.05138563 45.50449575 13.19106855 41.39392988 13.1875 37.1875 C13.18814453 36.39939941 13.18878906 35.61129883 13.18945312 34.79931641 C13.13718178 29.02452117 12.57034942 23.58034883 11 18 C11.66 18 12.32 18 13 18 C14.20507812 19.68066406 14.20507812 19.68066406 15.53125 22.015625 C16.01207031 22.85480469 16.49289062 23.69398438 16.98828125 24.55859375 C17.48714844 25.44675781 17.98601562 26.33492187 18.5 27.25 C18.99886719 28.12269531 19.49773437 28.99539062 20.01171875 29.89453125 C23.62703859 36.2431492 23.62703859 36.2431492 25.03320312 39.09667969 C26.07478389 41.23972672 26.07478389 41.23972672 28 44 C31.36546331 52.78759865 30.73180589 62.12163085 28 71 C32.42787085 60.85279598 31.53320582 52.42358584 28 42 C22.32363753 28.38595993 13.51722729 17.46908634 3.80981445 6.54296875 C0 2.21084602 0 2.21084602 0 0 Z " fill="#9F7A3A" transform="translate(269,136)"/>
<path d="M0 0 C4.74424521 2.63569178 7.61931493 5.6079448 9.375 10.875 C10.60175537 26.70215538 10.60175537 26.70215538 5.375 32.875 C1.77077629 36.22109628 -1.83500652 37.14149655 -6.6875 37.375 C-11.3398695 37.1840973 -14.03534071 35.9393433 -17.625 32.875 C-18.2025 32.400625 -18.78 31.92625 -19.375 31.4375 C-24.01590942 25.63636323 -23.38296367 17.86247761 -22.625 10.875 C-21.0166836 6.18647049 -18.37633961 3.07621555 -14.25 0.375 C-8.91437641 -1.83284424 -5.47644088 -1.6995851 0 0 Z " fill="#E6A866" transform="translate(333.625,279.125)"/>
<path d="M0 0 C0.78890625 0.41572266 0.78890625 0.41572266 1.59375 0.83984375 C4.5082512 2.24504969 7.47971431 3.40218382 10.5 4.5625 C11.6240625 4.99691406 12.748125 5.43132812 13.90625 5.87890625 C21.11831067 8.49236763 28.13347549 8.32907928 35.75 8.375 C36.47375824 8.37956207 37.19751648 8.38412415 37.94320679 8.38882446 C56.2631072 8.42977261 74.53975916 6.11710771 92.25390625 1.359375 C97.77142075 -0.06478192 102.93981642 -0.50343983 108.625 -0.4375 C109.53725342 -0.43137695 110.44950684 -0.42525391 111.3894043 -0.41894531 C117.99567133 -0.26499448 123.20060214 0.71668331 129 4 C129.74507812 4.32355469 130.49015625 4.64710938 131.2578125 4.98046875 C135.59336432 6.88407125 138.08230067 8.44546408 140 13 C140 13.66 140 14.32 140 15 C139.34 15 138.68 15 138 15 C138 14.34 138 13.68 138 13 C137.2575 12.71125 136.515 12.4225 135.75 12.125 C133 11 133 11 131.0625 9.9375 C117.81841671 3.91746214 98.9609342 7.63698687 85.88134766 12.32861328 C82.98732196 13.36138913 80.05850047 14.27401278 77.125 15.1875 C76.19945312 15.49042969 75.27390625 15.79335937 74.3203125 16.10546875 C65.0876647 18.59285269 56.17304974 19.38711084 46.625 19.375 C44.8452478 19.3747583 44.8452478 19.3747583 43.02954102 19.37451172 C24.12745968 19.12745968 24.12745968 19.12745968 18 13 C18.87398437 13.144375 19.74796875 13.28875 20.6484375 13.4375 C34.84192014 15.57991247 48.38490945 15.55206074 62.625 13.6875 C63.53709229 13.56995361 64.44918457 13.45240723 65.38891602 13.33129883 C70.2391326 12.63202762 74.57046855 11.58764446 79.11035156 9.74682617 C82.19437791 8.52795839 85.36561339 7.68255986 88.5625 6.8125 C89.80128906 6.46832031 91.04007812 6.12414062 92.31640625 5.76953125 C95.99090711 5.00189958 99.25856628 4.86035833 103 5 C103 4.34 103 3.68 103 3 C94.6033305 4.37173314 86.29393393 5.83153746 78.0625 8 C55.19474991 13.8817273 28.0790841 17.58731984 6 7 C3.70624215 5.4872869 2.01021834 3.91215891 0 2 C0 1.34 0 0.68 0 0 Z " fill="#6B7338" transform="translate(186,223)"/>
<path d="M0 0 C3.12829518 2.06183092 4.13097228 3.46200801 5.75 6.8125 C6.09057617 9.85864258 6.09057617 9.85864258 6.04296875 13.20703125 C6.03330078 14.40908203 6.02363281 15.61113281 6.01367188 16.84960938 C5.98853516 18.09548828 5.96339844 19.34136719 5.9375 20.625 C5.91719727 22.52282227 5.91719727 22.52282227 5.89648438 24.45898438 C5.86118318 27.57725643 5.81186819 30.69466042 5.75 33.8125 C8.225 33.3175 8.225 33.3175 10.75 32.8125 C10.75 33.4725 10.75 34.1325 10.75 34.8125 C8.42313547 35.97593227 6.90278587 36.01145988 4.3125 36.0625 C3.53003906 36.08828125 2.74757812 36.1140625 1.94140625 36.140625 C-0.72931509 35.74073089 -1.56977439 34.86550878 -3.25 32.8125 C-3.806875 33.2971875 -4.36375 33.781875 -4.9375 34.28125 C-8.80265775 36.84061121 -12.77969114 36.59220503 -17.25 35.8125 C-20.62288852 33.1623733 -21.12586186 31.50767357 -21.875 27.3125 C-21.2134315 23.60771643 -20.41575144 22.21682653 -17.3828125 20.01171875 C-12.88202737 17.48105751 -8.06801493 15.64459306 -3.25 13.8125 C-3.25 9.8525 -3.25 5.8925 -3.25 1.8125 C-6.22 1.8125 -9.19 1.8125 -12.25 1.8125 C-12.04375 3.09125 -11.8375 4.37 -11.625 5.6875 C-11.2734375 7.8671875 -11.2734375 7.8671875 -11.25 9.8125 C-11.91 10.4725 -12.57 11.1325 -13.25 11.8125 C-17.80555556 11.25694444 -17.80555556 11.25694444 -19.25 9.8125 C-19.6875 7 -19.6875 7 -19.25 3.8125 C-13.28227901 -1.09429281 -7.40106048 -2.70423364 0 0 Z " fill="#E5A866" transform="translate(162.25,279.1875)"/>
<path d="M0 0 C2.6875 1.6875 2.6875 1.6875 4.6875 4.6875 C5.00634766 7.59838867 5.00634766 7.59838867 5.1015625 11.10546875 C5.14023437 12.35908203 5.17890625 13.61269531 5.21875 14.90429688 C5.2496875 16.21462891 5.280625 17.52496094 5.3125 18.875 C5.35069338 20.2103116 5.38974591 21.54559892 5.4296875 22.88085938 C5.52409153 26.14959888 5.60967017 29.41833064 5.6875 32.6875 C7.3375 32.6875 8.9875 32.6875 10.6875 32.6875 C10.0275 33.6775 9.3675 34.6675 8.6875 35.6875 C6.62890625 36.0859375 6.62890625 36.0859375 4.25 36.0625 C3.07630859 36.07410156 3.07630859 36.07410156 1.87890625 36.0859375 C-0.7553201 35.60698725 -1.63864504 34.72196037 -3.3125 32.6875 C-3.869375 33.17347656 -4.42625 33.65945313 -5 34.16015625 C-8.86921253 36.71566655 -12.83607046 36.33442586 -17.3125 35.6875 C-19.9375 34.1875 -19.9375 34.1875 -21.3125 31.6875 C-21.97178507 27.0725045 -22.09907884 24.94019963 -19.625 21 C-15.13990789 17.1443945 -8.81150333 15.57954361 -3.3125 13.6875 C-3.25854522 12.06286158 -3.21972805 10.43771459 -3.1875 8.8125 C-3.16429687 7.90757812 -3.14109375 7.00265625 -3.1171875 6.0703125 C-3.06925164 3.49943006 -3.06925164 3.49943006 -5.3125 1.6875 C-8.89593976 1.52072718 -8.89593976 1.52072718 -12.3125 1.6875 C-12.3125 2.3475 -12.3125 3.0075 -12.3125 3.6875 C-11.9825 4.0175 -11.6525 4.3475 -11.3125 4.6875 C-11.125 7.125 -11.125 7.125 -11.3125 9.6875 C-11.9725 10.3475 -12.6325 11.0075 -13.3125 11.6875 C-16.4375 11.3125 -16.4375 11.3125 -19.3125 10.6875 C-19.6425 8.7075 -19.9725 6.7275 -20.3125 4.6875 C-13.96773604 -0.75086911 -8.20329904 -3.25036377 0 0 Z " fill="#EDAD68" transform="translate(370.3125,279.3125)"/>
<path d="M0 0 C12.87 0 25.74 0 39 0 C39 4.95 39 9.9 39 15 C38.34 15 37.68 15 37 15 C36.7525 13.7625 36.505 12.525 36.25 11.25 C35.2769279 7.45837424 34.35107646 5.26424085 31 3 C28.69 2.67 26.38 2.34 24 2 C24.33 16.52 24.66 31.04 25 46 C26.98 46.66 28.96 47.32 31 48 C31 48.33 31 48.66 31 49 C23.41 49 15.82 49 8 49 C8 48.34 8 47.68 8 47 C10.97 46.505 10.97 46.505 14 46 C14.33 31.48 14.66 16.96 15 2 C7.74040756 2.30811329 7.74040756 2.30811329 5.07421875 4.26953125 C3.75526591 6.39424436 3.27497601 8.23281966 2.8125 10.6875 C2.57466797 11.89986328 2.57466797 11.89986328 2.33203125 13.13671875 C2.22246094 13.75160156 2.11289063 14.36648438 2 15 C1.34 15 0.68 15 0 15 C0 10.05 0 5.1 0 0 Z " fill="#D59E61" transform="translate(97,266)"/>
<path d="M0 0 C3 2 3 2 3.67578125 4.078125 C4.74589887 13.72207652 5.23922577 24.757183 2 34 C1.68160156 34.93972656 1.36320312 35.87945312 1.03515625 36.84765625 C-1.69275415 44.11289909 -5.30851804 50.61809656 -11 56 C-11.99 56 -12.98 56 -14 56 C-13.61385295 52.23506631 -12.7371484 49.35853441 -11.03125 46.03125 C-8.4952034 40.44477 -8.11734873 35.0025806 -7.75 28.9375 C-7.67265625 27.88111328 -7.5953125 26.82472656 -7.515625 25.73632812 C-7.32897363 23.15820605 -7.15743284 20.58004273 -7 18 C-8.32 18 -9.64 18 -11 18 C-12.2393494 14.2819518 -12.54218385 10.86305995 -12 7 C-10.0572272 3.61813624 -9.00642921 2.29735409 -5.25 1.1875 C-4.5075 1.125625 -3.765 1.06375 -3 1 C-3 1.66 -3 2.32 -3 3 C-2.01 3 -1.02 3 0 3 C0 2.01 0 1.02 0 0 Z " fill="#0D2420" transform="translate(279,157)"/>
<path d="M0 0 C3.125 0.4375 3.125 0.4375 5.4375 2.6875 C8.41880689 7.54592604 8.33653644 12.21605255 8.375 17.8125 C8.395625 18.555 8.41625 19.2975 8.4375 20.0625 C8.47198495 24.94212011 7.77009214 28.18737622 5.125 32.4375 C3.125 34.4375 3.125 34.4375 0.1875 34.75 C-2.875 34.4375 -2.875 34.4375 -4.625 33.25 C-8.10721576 28.20078715 -8.21169343 23.42739135 -8.1875 17.5 C-8.20361328 16.71431641 -8.21972656 15.92863281 -8.23632812 15.11914062 C-8.24049515 10.13954635 -7.59057978 6.76524879 -4.875 2.4375 C-2.875 0.4375 -2.875 0.4375 0 0 Z " fill="#0C2322" transform="translate(326.875,279.5625)"/>
<path d="M0 0 C1.4540625 0.0309375 1.4540625 0.0309375 2.9375 0.0625 C3.2675 1.0525 3.5975 2.0425 3.9375 3.0625 C2.844375 3.145 1.75125 3.2275 0.625 3.3125 C-3.0083696 3.70312557 -3.0083696 3.70312557 -4.78125 5.75 C-6.38006097 8.63565882 -6.36703966 10.53538952 -6.25 13.8125 C-6.22292969 14.79734375 -6.19585937 15.7821875 -6.16796875 16.796875 C-6.13316406 17.54453125 -6.09835937 18.2921875 -6.0625 19.0625 C-4.7425 19.0625 -3.4225 19.0625 -2.0625 19.0625 C-1.73028329 33.93842594 -2.69388625 45.23932348 -11.0625 58.0625 C-12.0525 58.7225 -13.0425 59.3825 -14.0625 60.0625 C-13.90394531 59.21042969 -13.74539063 58.35835937 -13.58203125 57.48046875 C-12.17105456 48.19772734 -12.55348755 40.27340932 -16.1640625 31.60546875 C-17.50933099 27.79777402 -17.77538192 24.04137583 -17.0625 20.0625 C-16.0725 18.5775 -16.0725 18.5775 -15.0625 17.0625 C-14.0725 17.0625 -13.0825 17.0625 -12.0625 17.0625 C-12.0625 16.4025 -12.0625 15.7425 -12.0625 15.0625 C-11.0725 15.0625 -10.0825 15.0625 -9.0625 15.0625 C-9.14951172 14.17498047 -9.14951172 14.17498047 -9.23828125 13.26953125 C-9.61121614 6.73784295 -9.61121614 6.73784295 -6.625 3.0625 C-5.779375 2.4025 -4.93375 1.7425 -4.0625 1.0625 C-3.0625 0.0625 -3.0625 0.0625 0 0 Z " fill="#A6242B" transform="translate(274.0625,155.9375)"/>
<path d="M0 0 C-0.44314183 8.12426688 -3.22680344 14.24315811 -9 20 C-9.71447643 22.10332891 -9.71447643 22.10332891 -10 24 C-5.07498599 22.63194055 -3.60920078 20.26169461 -1 16 C0.3125 14.125 0.3125 14.125 2 13 C5.6875 12.8125 5.6875 12.8125 9 13 C8.40049704 16.68266103 7.75241109 20.34543185 7 24 C8.98 23.34 10.96 22.68 13 22 C12.01 23.32 11.02 24.64 10 26 C8.0625 25.6875 8.0625 25.6875 6 25 C5.505 23.515 5.505 23.515 5 22 C4.46375 22.495 3.9275 22.99 3.375 23.5 C0.36308535 25.40226189 -1.48397555 25.1435112 -5 25 C-5.886875 25.20625 -6.77375 25.4125 -7.6875 25.625 C-10 26 -10 26 -13 24 C-13.893375 16.98062503 -11.65186711 11.44024869 -9 5 C-11.97 4.67 -14.94 4.34 -18 4 C-18.66 6.97 -19.32 9.94 -20 13 C-17.69 13 -15.38 13 -13 13 C-15.57404971 16.86107457 -17.61020259 16.94319692 -22 18 C-22.10957031 18.63808594 -22.21914062 19.27617187 -22.33203125 19.93359375 C-22.49058594 20.75988281 -22.64914063 21.58617187 -22.8125 22.4375 C-22.96332031 23.26121094 -23.11414063 24.08492188 -23.26953125 24.93359375 C-23.51058594 25.61550781 -23.75164062 26.29742187 -24 27 C-24.99 27.33 -25.98 27.66 -27 28 C-26.51989814 22.42829152 -25.66428495 17.36269595 -24 12 C-23.77183594 11.0615625 -23.54367188 10.123125 -23.30859375 9.15625 C-23.06238281 8.1559375 -22.81617188 7.155625 -22.5625 6.125 C-22.33691406 5.17882812 -22.11132812 4.23265625 -21.87890625 3.2578125 C-21.58886719 2.51273437 -21.29882812 1.76765625 -21 1 C-17.61328536 -0.12890488 -14.62237188 -0.36351938 -11.0625 -0.625 C-9.83660156 -0.72039062 -8.61070312 -0.81578125 -7.34765625 -0.9140625 C-4.56409508 -0.98551915 -2.60567869 -0.87509009 0 0 Z " fill="#C99454" transform="translate(196,337)"/>
<path d="M0 0 C1.485 0.86625 1.485 0.86625 3 1.75 C3.65226563 2.11609375 4.30453125 2.4821875 4.9765625 2.859375 C6.79011064 3.88168399 8.58400763 4.93867119 10.375 6 C17.04892424 9.32382447 24.74323232 10.51159851 32 12 C32.91394531 12.19851562 33.82789063 12.39703125 34.76953125 12.6015625 C48.16254424 14.25342142 62.83031548 13.88225419 76 11 C77.77462595 10.63096358 79.5493783 10.26253472 81.32421875 9.89453125 C92.47222294 7.56854319 92.47222294 7.56854319 103.51171875 4.78515625 C112.62702422 2.26735694 120.59238836 1.5133994 130 2 C130 2.33 130 2.66 130 3 C128.83726562 3.14695313 127.67453125 3.29390625 126.4765625 3.4453125 C115.48065936 4.945333 105.48513177 7.56270863 95.04882812 11.27880859 C69.5166049 20.26619985 39.45082235 21.83588257 14.09765625 11.53125 C8.9723691 8.99769065 4.23772718 5.84707497 0 2 C0 1.34 0 0.68 0 0 Z " fill="#64783B" transform="translate(179,232)"/>
<path d="M0 0 C0 3.63 0 7.26 0 11 C3.3 11 6.6 11 10 11 C10 11.66 10 12.32 10 13 C6.7 13 3.4 13 0 13 C0.33 22.9 0.66 32.8 1 43 C2.65 43.33 4.3 43.66 6 44 C6.45375 43.175 6.9075 42.35 7.375 41.5 C7.91125 40.675 8.4475 39.85 9 39 C9.66 39 10.32 39 11 39 C10.1690807 42.11594739 9.48993358 44.45562935 7.3125 46.875 C3.95063538 48.51050171 1.69096778 48.51803057 -2 48 C-4.63016161 45.8272578 -6.47336894 44.05326212 -8 41 C-8.08543895 38.89471067 -8.10714725 36.78668843 -8.09765625 34.6796875 C-8.09443359 33.42285156 -8.09121094 32.16601562 -8.08789062 30.87109375 C-8.07951172 29.55238281 -8.07113281 28.23367188 -8.0625 26.875 C-8.05748489 25.53515789 -8.05292201 24.195314 -8.04882812 22.85546875 C-8.03701086 19.57026794 -8.02053617 16.28515603 -8 13 C-9.98 13 -11.96 13 -14 13 C-14 12.34 -14 11.68 -14 11 C-12.02 11 -10.04 11 -8 11 C-8 7.7 -8 4.4 -8 1 C-1.125 0 -1.125 0 0 0 Z " fill="#DEA363" transform="translate(395,268)"/>
<path d="M0 0 C0 3.63 0 7.26 0 11 C2.97 11 5.94 11 9 11 C9 11.66 9 12.32 9 13 C6.03 13 3.06 13 0 13 C0.33 23.23 0.66 33.46 1 44 C2.98 44 4.96 44 7 44 C7.66 42.35 8.32 40.7 9 39 C10 42 10 42 9.3125 44.0625 C7.68763423 46.46111137 6.75851034 47.105348 4 48 C-2.16352201 48.66037736 -2.16352201 48.66037736 -5.375 46.125 C-8.21516077 42.41094361 -8.11789503 40.11585645 -8.09765625 35.4609375 C-8.09282227 33.50800781 -8.09282227 33.50800781 -8.08789062 31.515625 C-8.07953466 30.13541601 -8.07106971 28.75520768 -8.0625 27.375 C-8.05748501 25.98698074 -8.0529221 24.59895978 -8.04882812 23.2109375 C-8.03700976 19.80724868 -8.02053434 16.40364561 -8 13 C-9.98 13 -11.96 13 -14 13 C-14 12.34 -14 11.68 -14 11 C-12.02 11 -10.04 11 -8 11 C-8 7.7 -8 4.4 -8 1 C-5.23735711 0.40267181 -2.83967231 0 0 0 Z " fill="#DDA363" transform="translate(219,268)"/>
<path d="M0 0 C1.03125 0.01289063 2.0625 0.02578125 3.125 0.0390625 C5.90655972 0.36408171 7.62179651 0.94579117 10 2.375 C10 1.715 10 1.055 10 0.375 C10.66 0.375 11.32 0.375 12 0.375 C12 4.005 12 7.635 12 11.375 C11.34 11.375 10.68 11.375 10 11.375 C9.566875 10.26125 9.13375 9.1475 8.6875 8 C7.30088881 4.19987666 7.30088881 4.19987666 4 2.375 C0.91634129 2.1247843 0.91634129 2.1247843 -2 2.375 C-3.34294244 3.50219884 -3.34294244 3.50219884 -3.25 6.4375 C-2.79972096 9.4893913 -2.03301033 10.34639105 0.34375 12.40625 C2.30257438 13.7753208 4.27299877 15.1279244 6.25390625 16.46484375 C10.56795027 19.46565104 13.57629815 22.06817883 14.5625 27.4375 C13.85491998 31.13264011 12.68699599 32.76062552 10 35.375 C5.9402855 37.74316679 1.60143988 37.99390712 -3 37.375 C-6.5 35.875 -6.5 35.875 -9 34.375 C-9 35.365 -9 36.355 -9 37.375 C-9.66 37.375 -10.32 37.375 -11 37.375 C-11 32.755 -11 28.135 -11 23.375 C-10.34 23.375 -9.68 23.375 -9 23.375 C-8.72285156 24.08527344 -8.44570312 24.79554688 -8.16015625 25.52734375 C-7.79792969 26.44644531 -7.43570313 27.36554688 -7.0625 28.3125 C-6.70285156 29.22902344 -6.34320313 30.14554687 -5.97265625 31.08984375 C-5.2003782 33.29918533 -5.2003782 33.29918533 -4 34.375 C-1.32941149 34.51615161 1.32432238 34.41747107 4 34.375 C5.44618254 31.48263493 5.39562989 29.57960209 5 26.375 C2.75412739 23.83803107 2.75412739 23.83803107 -0.25 21.75 C-9.70085936 14.62435207 -9.70085936 14.62435207 -10.53125 11.15625 C-10.5209375 10.4034375 -10.510625 9.650625 -10.5 8.875 C-10.5103125 8.1221875 -10.520625 7.369375 -10.53125 6.59375 C-9.16341893 0.88104375 -5.36476156 -0.14753094 0 0 Z " fill="#E9AA67" transform="translate(188,278.625)"/>
<path d="M0 0 C4.29 0 8.58 0 13 0 C12.67 0.66 12.34 1.32 12 2 C11.84876169 3.5195764 11.75118307 5.04472502 11.68359375 6.5703125 C11.64169922 7.46621094 11.59980469 8.36210937 11.55664062 9.28515625 C11.51732422 10.22230469 11.47800781 11.15945313 11.4375 12.125 C11.39431641 13.06988281 11.35113281 14.01476562 11.30664062 14.98828125 C11.20040928 17.32537092 11.09836824 19.6625683 11 22 C13.64 22 16.28 22 19 22 C19 22.33 19 22.66 19 23 C16.36 23 13.72 23 11 23 C11.13847638 26.62532066 11.28702643 30.25015904 11.4375 33.875 C11.47681641 34.90753906 11.51613281 35.94007813 11.55664062 37.00390625 C11.61948242 38.48310547 11.61948242 38.48310547 11.68359375 39.9921875 C11.72025146 40.90339355 11.75690918 41.81459961 11.79467773 42.75341797 C11.86577065 45.03483481 11.86577065 45.03483481 13 47 C9.04 47 5.08 47 1 47 C1.33 46.01 1.66 45.02 2 44 C2.0954178 42.61433488 2.13804512 41.2246211 2.14526367 39.83569336 C2.15164352 39.00150375 2.15802338 38.16731415 2.16459656 37.30784607 C2.16570938 36.4109053 2.1668222 35.51396454 2.16796875 34.58984375 C2.17129715 33.66659805 2.17462555 32.74335236 2.17805481 31.79212952 C2.18311632 29.84116108 2.18546337 27.89018398 2.18530273 25.93920898 C2.18749403 22.94565723 2.20567104 19.95247114 2.22460938 16.95898438 C2.22754242 15.06510543 2.22952781 13.17122473 2.23046875 11.27734375 C2.23765427 10.37837875 2.24483978 9.47941376 2.25224304 8.5532074 C2.24916641 7.72216995 2.24608978 6.89113251 2.24291992 6.03491211 C2.24505745 4.93595863 2.24505745 4.93595863 2.24723816 3.81480408 C2.15221877 1.74876242 2.15221877 1.74876242 0 0 Z " fill="#EEAD68" transform="translate(269,267)"/>
<path d="M0 0 C9.28240613 -0.18163308 9.28240613 -0.18163308 14 3 C16.42166168 5.90599402 16.96330364 7.66361668 17.375 11.4375 C16.96325198 15.34910621 16.1413801 17.71145198 14 21 C11.04867945 22.87869007 8.78040947 23.2505529 5.3125 23.1875 C4.52488281 23.18105469 3.73726563 23.17460937 2.92578125 23.16796875 C1 23 1 23 0 22 C-0.08700342 20.36527118 -0.10701063 18.72685945 -0.09765625 17.08984375 C-0.09443359 16.10048828 -0.09121094 15.11113281 -0.08789062 14.09179688 C-0.07951172 13.05087891 -0.07113281 12.00996094 -0.0625 10.9375 C-0.05798828 9.89271484 -0.05347656 8.84792969 -0.04882812 7.77148438 C-0.03699913 5.1809334 -0.02051689 2.59049441 0 0 Z " fill="#0D2322" transform="translate(280,290)"/>
<path d="M0 0 C0.78890625 0.41572266 0.78890625 0.41572266 1.59375 0.83984375 C4.5082512 2.24504969 7.47971431 3.40218382 10.5 4.5625 C11.6240625 4.99691406 12.748125 5.43132812 13.90625 5.87890625 C21.11897122 8.49260699 28.13298032 8.32708882 35.75 8.375 C36.47043488 8.38022675 37.19086975 8.38545349 37.93313599 8.39083862 C63.64544452 8.61172996 63.64544452 8.61172996 88 2 C89.70702735 1.93003986 91.41668003 1.91559846 93.125 1.9375 C94.03507812 1.94652344 94.94515625 1.95554688 95.8828125 1.96484375 C96.93082031 1.98224609 96.93082031 1.98224609 98 2 C79.11454115 14.5903059 42.09033802 15.49936769 20.5625 11.6875 C19.89621582 11.56987305 19.22993164 11.45224609 18.54345703 11.33105469 C11.16952882 9.86040642 5.44180125 7.17634753 0 2 C0 1.34 0 0.68 0 0 Z " fill="#8F783A" transform="translate(186,223)"/>
<path d="M0 0 C0.13559675 2.56428515 0.23433188 5.12135216 0.3125 7.6875 C0.35439453 8.40873047 0.39628906 9.12996094 0.43945312 9.87304688 C0.53311688 13.97551923 0.31855999 15.56847548 -2.203125 18.984375 C-5.96556774 21.69585608 -8.19234809 21.67119735 -12.68359375 21.41015625 C-15 21 -15 21 -17.625 19.5 C-19.56324504 15.97591811 -19.84887623 12.86624537 -19 9 C-15.13860834 3.14133679 -6.9233783 0 0 0 Z " fill="#E5A866" transform="translate(368,294)"/>
<path d="M0 0 C-0.495 1.19625 -0.99 2.3925 -1.5 3.625 C-3.88973115 10.80557312 -4.53037613 19.21880751 -1.6640625 26.30078125 C-0.12437453 29.21837474 -0.12437453 29.21837474 3 31 C6.09041714 31.16795745 9.01144661 30.7988096 12 30 C13.96287824 28.08261145 13.96287824 28.08261145 15 26 C15.66 26 16.32 26 17 26 C15.64844718 30.42326378 13.80109562 32.40412982 10 35 C6.27652266 36.24115911 2.86785828 36.5420862 -1 36 C-6.63590971 32.91620035 -9.9472097 30.07354487 -12 24 C-12.84280372 16.34616626 -12.74051643 9.33151167 -8 3 C-5.02583145 0.02583145 -4.38431613 0 0 0 Z " fill="#E8AA66" transform="translate(244,280)"/>
<path d="M0 0 C-0.66 3.63 -1.32 7.26 -2 11 C1.56432095 9.31684844 3.24625552 7.85025765 4.9375 4.375 C7 1 7 1 10 0 C12.62113708 0 14.50935112 0.31292445 17 1 C16.06660688 10.07644346 14.07928934 20.44817532 6.96875 26.8203125 C4.45724094 28.32522468 2.88008847 28.37895901 0 28 C-2 26 -2 26 -2.125 23.375 C-2.08375 22.59125 -2.0425 21.8075 -2 21 C-1.34 22.32 -0.68 23.64 0 25 C2.89050521 24.73920313 2.89050521 24.73920313 6 23 C8.69844658 18.97673469 11 14.89942975 11 10 C10.62875 10.515625 10.2575 11.03125 9.875 11.5625 C8 13 8 13 5.0625 12.625 C4.051875 12.41875 3.04125 12.2125 2 12 C-0.27650745 12.3577614 -0.27650745 12.3577614 -2 13 C-2.66 11.68 -3.32 10.36 -4 9 C-4.556875 9.515625 -5.11375 10.03125 -5.6875 10.5625 C-8 12 -8 12 -10.75 11.6875 C-11.4925 11.460625 -12.235 11.23375 -13 11 C-12.73409107 7.18863862 -12.17089833 5.23121539 -9.875 2.125 C-6.32945356 -0.49562128 -4.31064602 -0.42261236 0 0 Z " fill="#D09956" transform="translate(304,350)"/>
<path d="M0 0 C1.8359375 2.03125 1.8359375 2.03125 3 4 C1.35 4 -0.3 4 -2 4 C-2.33 4.99 -2.66 5.98 -3 7 C-5.31 7.33 -7.62 7.66 -10 8 C-9.34 8.66 -8.68 9.32 -8 10 C-8.66 10.66 -9.32 11.32 -10 12 C-9.00419922 11.36771484 -9.00419922 11.36771484 -7.98828125 10.72265625 C-6.66376953 9.90087891 -6.66376953 9.90087891 -5.3125 9.0625 C-4.44238281 8.51722656 -3.57226562 7.97195312 -2.67578125 7.41015625 C-0.05375311 6.02832828 2.08310075 5.41519827 5 5 C4.49607061 9.40938215 3.0379639 11.78843816 0 15 C-2.97113666 16.80745462 -5.31111231 17.28119663 -8.765625 17.4140625 C-10.09980469 17.47207031 -10.09980469 17.47207031 -11.4609375 17.53125 C-12.38132813 17.5621875 -13.30171875 17.593125 -14.25 17.625 C-15.65378906 17.68300781 -15.65378906 17.68300781 -17.0859375 17.7421875 C-19.39043054 17.83624844 -21.69492013 17.92189399 -24 18 C-19.78975722 6.68621963 -13.25275013 -2.79005266 0 0 Z " fill="#5C7539" transform="translate(236,204)"/>
<path d="M0 0 C1.67745682 0.63903117 3.34561387 1.30341637 5 2 C9.15405674 2.28838457 9.15405674 2.28838457 13 1 C11.37482529 4.86552856 8.86698229 7.6029813 6.0625 10.6875 C5.18722656 11.66074219 4.31195313 12.63398437 3.41015625 13.63671875 C0.39361383 16.5945926 -1.25289982 16.94566544 -5.4375 17.25 C-9.12761101 16.99104484 -10.47293499 16.62814761 -13 14 C-13 13.34 -13 12.68 -13 12 C-11.02 12 -9.04 12 -7 12 C-10.37097383 10.50178941 -12.20442119 10 -16 10 C-14.86311997 6.02091988 -13.06427517 3.50092177 -9.77734375 0.9453125 C-6.4255673 -0.83739058 -3.74245136 -0.41582793 0 0 Z " fill="#567038" transform="translate(275,113)"/>
<path d="M0 0 C5.13656401 1.81290495 7.56523417 4.13046834 10 9 C10 11.31 10 13.62 10 16 C3.07 16 -3.86 16 -11 16 C-9.875 5.875 -9.875 5.875 -7 2 C-7.66 1.67 -8.32 1.34 -9 1 C-5.92805092 -0.53597454 -3.39755707 -0.2265038 0 0 Z " fill="#CE9A5F" transform="translate(251,278)"/>
<path d="M0 0 C2.8379009 0.07132965 4.11977585 0.27694482 6.6875 1.625 C9.12961833 6.00046201 8.7957932 10.42442961 8.1875 15.3125 C6.875 18.4375 6.875 18.4375 5.1875 20.3125 C1.71424819 21.4702506 -1.17317448 21.38116652 -4.8125 21.3125 C-4.84138146 18.00001813 -4.85925799 14.68756833 -4.875 11.375 C-4.88337891 10.42947266 -4.89175781 9.48394531 -4.90039062 8.50976562 C-4.90361328 7.61064453 -4.90683594 6.71152344 -4.91015625 5.78515625 C-4.91539307 4.95250244 -4.92062988 4.11984863 -4.92602539 3.26196289 C-4.71770646 -0.3152987 -3.74956294 0.30734122 0 0 Z " fill="#0B2222" transform="translate(284.8125,267.6875)"/>
<path d="M0 0 C0 0.66 0 1.32 0 2 C-0.89525391 2.12955078 -0.89525391 2.12955078 -1.80859375 2.26171875 C-7.88494626 3.24585311 -13.68253654 4.71709349 -19.5625 6.5 C-25.67432691 8.34447633 -31.68836136 9.97943677 -38 11 C-39.01707031 11.18433594 -40.03414062 11.36867187 -41.08203125 11.55859375 C-55.79127346 13.99612532 -70.34716525 13.58025496 -85 11 C-85.77601563 10.87496094 -86.55203125 10.74992188 -87.3515625 10.62109375 C-87.89554688 10.41613281 -88.43953125 10.21117187 -89 10 C-89.33 9.01 -89.66 8.02 -90 7 C-88.54207031 7.2165625 -88.54207031 7.2165625 -87.0546875 7.4375 C-63.51764344 10.70210049 -42.15030358 8.48678605 -19.25366211 2.71411133 C-12.80955261 1.10230091 -6.67598577 0 0 0 Z " fill="#1D3020" transform="translate(289,226)"/>
<path d="M0 0 C6.30275538 4.9617436 11.04888061 10.71622637 16 17 C16.60972656 17.7321875 17.21945312 18.464375 17.84765625 19.21875 C30.53868206 34.71394324 34.50716359 48.82227374 34.2746582 68.54394531 C34 71 34 71 32 78 C25.73 77.67 19.46 77.34 13 77 C13 76.67 13 76.34 13 76 C16.96 76 20.92 76 25 76 C25.33 74.02 25.66 72.04 26 70 C26.66 70.33 27.32 70.66 28 71 C32.42787085 60.85279598 31.53320582 52.42358584 28 42 C22.32363753 28.38595993 13.51722729 17.46908634 3.80981445 6.54296875 C0 2.21084602 0 2.21084602 0 0 Z " fill="#92753A" transform="translate(269,136)"/>
<path d="M0 0 C0.33 0 0.66 0 1 0 C1.05534912 0.81678223 1.11069824 1.63356445 1.16772461 2.47509766 C1.42130191 6.19194453 1.67935662 9.90846758 1.9375 13.625 C2.02451172 14.91019531 2.11152344 16.19539063 2.20117188 17.51953125 C2.28818359 18.76347656 2.37519531 20.00742188 2.46484375 21.2890625 C2.543396 22.43068848 2.62194824 23.57231445 2.70288086 24.74853516 C2.98832282 27.8722131 3.4791712 30.90861189 4 34 C4.18862849 36.75048867 4.18497577 39.49354402 4.1875 42.25 C4.19974609 42.96929687 4.21199219 43.68859375 4.22460938 44.4296875 C4.22982924 46.28795986 4.12264513 48.14577197 4 50 C2 52 2 52 -0.625 52.125 C-1.40875 52.08375 -2.1925 52.0425 -3 52 C-3.02923559 48.14584948 -3.04687777 44.29172785 -3.0625 40.4375 C-3.07087891 39.35146484 -3.07925781 38.26542969 -3.08789062 37.14648438 C-3.1046348 31.63765166 -2.85278776 26.45152472 -2 21 C-1.70689262 16.62307891 -1.5614536 12.238726 -1.39453125 7.85546875 C-1.33845703 6.55416016 -1.33845703 6.55416016 -1.28125 5.2265625 C-1.25095703 4.43846191 -1.22066406 3.65036133 -1.18945312 2.83837891 C-1 1 -1 1 0 0 Z " fill="#A27D3C" transform="translate(250,174)"/>
<path d="M0 0 C0.74958984 0.00451172 1.49917969 0.00902344 2.27148438 0.01367188 C4.11852383 0.02543646 5.96552213 0.04337135 7.8125 0.0625 C7.31746397 5.08178935 6.27828706 8.64273933 3.75 13 C3.20214844 13.95777344 2.65429688 14.91554688 2.08984375 15.90234375 C1.66832031 16.61519531 1.24679688 17.32804687 0.8125 18.0625 C-0.30294282 14.71617153 0.14032768 13.42336161 0.8125 10.0625 C0.4825 9.0725 0.1525 8.0825 -0.1875 7.0625 C0.1425 6.4025 0.4725 5.7425 0.8125 5.0625 C-2.1575 4.7325 -5.1275 4.4025 -8.1875 4.0625 C-8.8475 7.0325 -9.5075 10.0025 -10.1875 13.0625 C-7.8775 13.0625 -5.5675 13.0625 -3.1875 13.0625 C-5.76154971 16.92357457 -7.79770259 17.00569692 -12.1875 18.0625 C-12.29707031 18.70058594 -12.40664062 19.33867187 -12.51953125 19.99609375 C-12.67808594 20.82238281 -12.83664063 21.64867187 -13 22.5 C-13.15082031 23.32371094 -13.30164063 24.14742188 -13.45703125 24.99609375 C-13.69808594 25.67800781 -13.93914062 26.35992187 -14.1875 27.0625 C-15.1775 27.3925 -16.1675 27.7225 -17.1875 28.0625 C-16.70739814 22.49079152 -15.85178495 17.42519595 -14.1875 12.0625 C-13.95933594 11.1240625 -13.73117188 10.185625 -13.49609375 9.21875 C-13.24988281 8.2184375 -13.00367188 7.218125 -12.75 6.1875 C-12.52441406 5.24132812 -12.29882812 4.29515625 -12.06640625 3.3203125 C-11.77636719 2.57523437 -11.48632812 1.83015625 -11.1875 1.0625 C-7.42449626 -0.19183458 -3.91539091 -0.04445422 0 0 Z " fill="#C29052" transform="translate(186.1875,336.9375)"/>
<path d="M0 0 C4.60157656 3.61552444 6.51954186 8.48471813 8 14 C8.87187839 23.25624321 8.87187839 23.25624321 7 27 C6.34 27 5.68 27 5 27 C4.34 25.02 3.68 23.04 3 21 C2.34 21.99 1.68 22.98 1 24 C-1.31 23.34 -3.62 22.68 -6 22 C-5.73864848 15.38780655 -4.97125522 11.46047593 -1 6 C-0.20929452 2.76961158 -0.20929452 2.76961158 0 0 Z " fill="#597338" transform="translate(236,180)"/>
<path d="M0 0 C7 6 7 6 8 8 C8.08527628 10.03232634 8.10716135 12.06747006 8.09765625 14.1015625 C8.09443359 15.31328125 8.09121094 16.525 8.08789062 17.7734375 C8.07951172 19.04445312 8.07113281 20.31546875 8.0625 21.625 C8.05798828 22.90375 8.05347656 24.1825 8.04882812 25.5 C8.03701203 28.66671292 8.02053815 31.83333356 8 35 C7.01 35 6.02 35 5 35 C5 25.76 5 16.52 5 7 C4.34 7 3.68 7 3 7 C3.00523682 7.80743652 3.01047363 8.61487305 3.01586914 9.44677734 C3.03659929 13.08951038 3.04964749 16.73223102 3.0625 20.375 C3.07087891 21.64601562 3.07925781 22.91703125 3.08789062 24.2265625 C3.09111328 25.43828125 3.09433594 26.65 3.09765625 27.8984375 C3.10289307 29.01911621 3.10812988 30.13979492 3.11352539 31.29443359 C3 34 3 34 2 36 C1.34 36 0.68 36 0 36 C0 24.12 0 12.24 0 0 Z " fill="#162B1D" transform="translate(251,118)"/>
<path d="M0 0 C0.99 0 1.98 0 3 0 C0.71292328 5.8947558 -2.08796766 11.51652412 -4.875 17.1875 C-5.40480469 18.29287109 -5.93460937 19.39824219 -6.48046875 20.53710938 C-6.99996094 21.59091797 -7.51945312 22.64472656 -8.0546875 23.73046875 C-8.52374512 24.69364014 -8.99280273 25.65681152 -9.47607422 26.64916992 C-11.11343913 29.17499286 -12.21515209 29.97150078 -15 31 C-16.77490546 29.22509454 -16.23499973 26.62215098 -16.31640625 24.21484375 C-16.37924805 22.46010742 -16.37924805 22.46010742 -16.44335938 20.66992188 C-16.48267578 19.43822266 -16.52199219 18.20652344 -16.5625 16.9375 C-16.60568359 15.70193359 -16.64886719 14.46636719 -16.69335938 13.19335938 C-16.79984198 10.12902665 -16.90185424 7.06460927 -17 4 C-16.01 4.33 -15.02 4.66 -14 5 C-13.34 10.61 -12.68 16.22 -12 22 C-8.04 14.74 -4.08 7.48 0 0 Z " fill="#D09956" transform="translate(270,332)"/>
<path d="M0 0 C0 0.33 0 0.66 0 1 C-1.16273438 1.14695313 -2.32546875 1.29390625 -3.5234375 1.4453125 C-14.50105858 2.94283902 -24.47667769 5.55241092 -34.89404297 9.265625 C-38.19631112 10.41716947 -41.52282853 11.43912835 -44.875 12.4375 C-45.96554687 12.76621094 -47.05609375 13.09492188 -48.1796875 13.43359375 C-50.94457793 13.98886953 -52.38993118 13.96459065 -55 13 C-54.67 12.67 -54.34 12.34 -54 12 C-55.32 11.34 -56.64 10.68 -58 10 C-57.26587891 9.83918945 -56.53175781 9.67837891 -55.77539062 9.51269531 C-52.34973115 8.76085208 -48.9248501 8.00552139 -45.5 7.25 C-43.6432666 6.84273682 -43.6432666 6.84273682 -41.74902344 6.42724609 C-35.83921393 5.1202244 -29.96903798 3.76408539 -24.13671875 2.14648438 C-15.89125054 -0.13254255 -8.49125532 -0.43920286 0 0 Z " fill="#5E7339" transform="translate(309,234)"/>
<path d="M0 0 C-1.83942571 9.86601061 -4.79807887 19.96047261 -11 28 C-12.32 27.67 -13.64 27.34 -15 27 C-14.6875 25.0625 -14.6875 25.0625 -14 23 C-13.01 22.67 -12.02 22.34 -11 22 C-9.80135872 19.47731214 -8.77593379 17.0470972 -7.8125 14.4375 C-7.53986328 13.72658203 -7.26722656 13.01566406 -6.98632812 12.28320312 C-6.31409927 10.5259733 -5.65572508 8.76345482 -5 7 C-5.60457031 7.47953125 -6.20914062 7.9590625 -6.83203125 8.453125 C-9.26865387 10.19168817 -11.04429686 10.68046453 -14 11 C-14.33 10.67 -14.66 10.34 -15 10 C-14.82364548 7.30917128 -14.38164079 4.67148554 -14 2 C-12.68 1.67 -11.36 1.34 -10 1 C-10.33 2.98 -10.66 4.96 -11 7 C-10.54109375 6.4946875 -10.0821875 5.989375 -9.609375 5.46875 C-8.99578125 4.8190625 -8.3821875 4.169375 -7.75 3.5 C-7.14671875 2.8503125 -6.5434375 2.200625 -5.921875 1.53125 C-4 0 -4 0 0 0 Z " fill="#CC9655" transform="translate(291,350)"/>
<path d="M0 0 C-0.54140625 0.67095703 -0.54140625 0.67095703 -1.09375 1.35546875 C-4.08078282 5.20793883 -4.08078282 5.20793883 -5.4375 9.8125 C-5.17045475 12.19934538 -5.17045475 12.19934538 -3 14 C-0.55036823 14.02253443 -0.55036823 14.02253443 2.125 13.625 C3.03507812 13.51414062 3.94515625 13.40328125 4.8828125 13.2890625 C5.58148438 13.19367188 6.28015625 13.09828125 7 13 C5.50702887 15.98594227 4.06028177 16.62599594 1 18 C-2.43124981 18.52190531 -5.57652377 18.60618044 -9 18 C-12.37288852 15.3498733 -12.87586186 13.69517357 -13.625 9.5 C-12.97360192 5.85217077 -12.76848529 5.36677919 -10.125 3.125 C-6.23890453 0.48245508 -4.62538322 -0.12172061 0 0 Z " fill="#E9AA67" transform="translate(154,297)"/>
<path d="M0 0 C0.10832169 2.08218362 0.18573541 4.16599129 0.25 6.25 C0.29640625 7.41015625 0.3428125 8.5703125 0.390625 9.765625 C0 13 0 13 -1.78515625 15.4296875 C-4 17 -4 17 -7.6875 16.875 C-8.780625 16.58625 -9.87375 16.2975 -11 16 C-12.44430855 13.11138291 -12.37688506 11.20352299 -12 8 C-9.07212552 4.40289707 -4.94552523 0 0 0 Z " fill="#102623" transform="translate(368,295)"/>
<path d="M0 0 C0.10794277 2.26979665 0.18556176 4.54105196 0.25 6.8125 C0.29640625 8.07707031 0.3428125 9.34164063 0.390625 10.64453125 C0 14 0 14 -1.85546875 15.92578125 C-4.50143163 17.25117249 -6.07722246 17.44965808 -9 17 C-10.875 15.9375 -10.875 15.9375 -12 14 C-12.0625 10.625 -12.0625 10.625 -11 7 C-4 0 -4 0 0 0 Z " fill="#0F2523" transform="translate(160,295)"/>
<path d="M0 0 C1.13695312 0.2165625 1.13695312 0.2165625 2.296875 0.4375 C11.35918135 1.9137128 20.25781078 2.19226991 29.4375 2.1875 C30.64567383 2.18814453 31.85384766 2.18878906 33.09863281 2.18945312 C39.15414204 2.15251905 45.0137078 1.92724476 51 1 C50.67 1.99 50.34 2.98 50 4 C43.08976358 6.48401743 36.08991079 6.38403216 28.8125 6.375 C27.61246338 6.37483887 26.41242676 6.37467773 25.17602539 6.37451172 C6.12840165 6.12840165 6.12840165 6.12840165 0 0 Z " fill="#8E7C3B" transform="translate(204,236)"/>
<path d="M0 0 C2.5 0.4375 2.5 0.4375 4.3125 1.9375 C6.03328032 5.56019541 5.69948095 8.44788102 5.5 12.4375 C1.21 12.4375 -3.08 12.4375 -7.5 12.4375 C-5.33252154 0.93319127 -5.33252154 0.93319127 0 0 Z " fill="#0C2422" transform="translate(247.5,279.5625)"/>
<path d="M0 0 C0.91007812 0.00902344 1.82015625 0.01804688 2.7578125 0.02734375 C3.80582031 0.04474609 3.80582031 0.04474609 4.875 0.0625 C1.53195864 2.29119424 -1.59480111 3.08837281 -5.4375 4 C-6.50013062 4.25668457 -6.50013062 4.25668457 -7.58422852 4.51855469 C-9.76284001 5.04043017 -11.94377071 5.55169323 -14.125 6.0625 C-15.39601563 6.36800781 -16.66703125 6.67351562 -17.9765625 6.98828125 C-24.51937555 8.49213044 -30.41252097 9.40969719 -37.125 9.0625 C-36.795 8.4025 -36.465 7.7425 -36.125 7.0625 C-33.47639573 6.46894386 -30.83302678 6.32040731 -28.125 6.0625 C-28.125 5.4025 -28.125 4.7425 -28.125 4.0625 C-27.49932129 3.97685791 -26.87364258 3.89121582 -26.22900391 3.80297852 C-23.40215353 3.41396482 -20.57608268 3.0195505 -17.75 2.625 C-16.27273438 2.42293945 -16.27273438 2.42293945 -14.765625 2.21679688 C-13.82460938 2.08466797 -12.88359375 1.95253906 -11.9140625 1.81640625 C-11.04475098 1.69595947 -10.17543945 1.5755127 -9.27978516 1.45141602 C-1.15610911 -0.01482191 -1.15610911 -0.01482191 0 0 Z " fill="#807639" transform="translate(279.125,224.9375)"/>
<path d="M0 0 C0.66 0 1.32 0 2 0 C5.00188878 4.98468616 7.37535697 9.12835554 8 15 C8.33948069 16.35792277 8.6946371 17.71198962 9.0625 19.0625 C9.85380873 22.11636554 10.19837249 24.82604014 10 28 C9.34 26.68 8.68 25.36 8 24 C7.67 27.63 7.34 31.26 7 35 C6.67 35 6.34 35 6 35 C6 30.38 6 25.76 6 21 C5.34 21 4.68 21 4 21 C4 22.98 4 24.96 4 27 C3.67 27 3.34 27 3 27 C2.95101563 25.88882813 2.90203125 24.77765625 2.8515625 23.6328125 C2.46083081 15.60431402 1.98094455 7.82761584 0 0 Z " fill="#8A743A" transform="translate(280,154)"/>
<path d="M0 0 C3 0 3 0 5.25 1.75 C7 4 7 4 7.0625 5.9375 C5.48937529 8.99121268 3.68324214 10.86560284 1 13 C-1.8125 12.8125 -1.8125 12.8125 -4 12 C-4.3763524 8.0482998 -4.09508438 6.17705367 -2.1875 2.625 C-1.465625 1.75875 -0.74375 0.8925 0 0 Z " fill="#846B42" transform="translate(225,349)"/>
<path d="M0 0 C1.485 0.86625 1.485 0.86625 3 1.75 C3.65226563 2.11609375 4.30453125 2.4821875 4.9765625 2.859375 C6.79011064 3.88168399 8.58400763 4.93867119 10.375 6 C17.03427587 9.34290343 24.76459978 10.45425541 32 12 C31.67 13.32 31.34 14.64 31 16 C19.42704822 15.19258476 8.51916969 9.73383541 0 2 C0 1.34 0 0.68 0 0 Z " fill="#597039" transform="translate(179,232)"/>
<path d="M0 0 C2.31998359 0.39999717 3.86323424 0.90567879 5.8125 2.25 C7 4 7 4 6.9375 6.4375 C5.79467388 9.56122472 4.69920191 11.0505764 2 13 C-0.75 12.75 -0.75 12.75 -3 12 C-3.2954439 6.97745369 -2.98514628 4.10457614 0 0 Z " fill="#C99554" transform="translate(268,349)"/>
<path d="M0 0 C0.99 0 1.98 0 3 0 C3 9.57 3 19.14 3 29 C2.34 29 1.68 29 1 29 C0.67 30.32 0.34 31.64 0 33 C-1.01690458 29.94928627 -1.12902823 27.8605438 -1.1328125 24.66796875 C-1.13474609 23.09885742 -1.13474609 23.09885742 -1.13671875 21.49804688 C-1.13285156 20.40556641 -1.12898437 19.31308594 -1.125 18.1875 C-1.12886719 17.10662109 -1.13273438 16.02574219 -1.13671875 14.91210938 C-1.13542969 13.86216797 -1.13414062 12.81222656 -1.1328125 11.73046875 C-1.13168457 10.77551514 -1.13055664 9.82056152 -1.12939453 8.83666992 C-0.99204104 5.82551854 -0.55111663 2.9610889 0 0 Z " fill="#87703B" transform="translate(238,125)"/>
<path d="M0 0 C0.98120464 3.05263664 0.98120464 4.94736336 0 8 C2.31 8 4.62 8 7 8 C4.42595029 11.86107457 2.38979741 11.94319692 -2 13 C-2.10957031 13.63808594 -2.21914062 14.27617187 -2.33203125 14.93359375 C-2.49058594 15.75988281 -2.64914063 16.58617187 -2.8125 17.4375 C-2.96332031 18.26121094 -3.11414063 19.08492188 -3.26953125 19.93359375 C-3.51058594 20.61550781 -3.75164062 21.29742187 -4 22 C-4.99 22.33 -5.98 22.66 -7 23 C-6.52099507 17.44102174 -5.71278613 12.33986263 -4 7 C-3.67 5.88625 -3.34 4.7725 -3 3.625 C-2 1 -2 1 0 0 Z " fill="#CA9555" transform="translate(176,342)"/>
<path d="M0 0 C0.721875 0.103125 1.44375 0.20625 2.1875 0.3125 C1.4375 6.0625 1.4375 6.0625 -0.8125 8.3125 C-2.1325 8.3125 -3.4525 8.3125 -4.8125 8.3125 C-4.8125 8.9725 -4.8125 9.6325 -4.8125 10.3125 C-1.8425 9.6525 1.1275 8.9925 4.1875 8.3125 C3.125 10.3125 3.125 10.3125 1.1875 12.3125 C-2.375 12.6875 -2.375 12.6875 -5.8125 12.3125 C-7.8125 10.3125 -7.8125 10.3125 -8.25 8 C-7.49426803 3.35764645 -4.68516044 0.52057338 0 0 Z " fill="#C69353" transform="translate(329.8125,349.6875)"/>
<path d="M0 0 C-3.22515763 1.73662334 -6.51329166 2.8905928 -10 4 C-9.34 4.66 -8.68 5.32 -8 6 C-7.75 8.5 -7.75 8.5 -8 11 C-8.66 11.66 -9.32 12.32 -10 13 C-13.125 12.625 -13.125 12.625 -16 12 C-16.33 10.02 -16.66 8.04 -17 6 C-11.31032436 1.12313516 -7.52676821 -0.29516738 0 0 Z " fill="#D49E60" transform="translate(367,278)"/>
<path d="M0 0 C1.32 0.33 2.64 0.66 4 1 C3.67 1.33 3.34 1.66 3 2 C8.28 2.33 13.56 2.66 19 3 C19 3.33 19 3.66 19 4 C18.42145264 4.01458252 17.84290527 4.02916504 17.24682617 4.04418945 C3.07175591 4.35232172 3.07175591 4.35232172 -10.69140625 7.43359375 C-14.62568171 8.39885592 -18.05066839 7.71217455 -22 7 C-22 6.67 -22 6.34 -22 6 C-19.64856824 5.32210976 -17.29461376 4.65759253 -14.9375 4 C-13.95233398 3.71382812 -13.95233398 3.71382812 -12.94726562 3.421875 C-8.5325982 2.20403571 -4.62058323 1.80772606 0 2 C0 1.34 0 0.68 0 0 Z " fill="#5B6A35" transform="translate(289,226)"/>
<path d="M0 0 C5.59943613 2.32263606 8.85355153 6.98231566 12 12 C15.01859229 20.09866223 14.20674632 29.48894317 14 38 C13.67 38 13.34 38 13 38 C12.67 34.37 12.34 30.74 12 27 C11.67 29.97 11.34 32.94 11 36 C10.67 36 10.34 36 10 36 C10.00112793 35.30962646 10.00225586 34.61925293 10.00341797 33.90795898 C9.99123902 30.75017062 9.93350156 27.59475625 9.875 24.4375 C9.87757813 23.35146484 9.88015625 22.26542969 9.8828125 21.14648438 C9.72862738 14.80562116 9.20073469 10.90933621 4.57470703 6.38696289 C4.05505371 5.92926514 3.53540039 5.47156738 3 5 C1.30419922 3.44311523 1.30419922 3.44311523 0 2 C0 1.34 0 0.68 0 0 Z " fill="#6B5F32" transform="translate(249,114)"/>
<path d="M0 0 C1.5778125 0.1546875 1.5778125 0.1546875 3.1875 0.3125 C2.58799704 3.99516103 1.93991109 7.65793185 1.1875 11.3125 C3.1675 10.6525 5.1475 9.9925 7.1875 9.3125 C6.1975 10.6325 5.2075 11.9525 4.1875 13.3125 C2.25 13 2.25 13 0.1875 12.3125 C-0.1425 11.3225 -0.4725 10.3325 -0.8125 9.3125 C-2.7925 10.3025 -2.7925 10.3025 -4.8125 11.3125 C-4.18490135 8.38370629 -3.22627341 5.95154371 -1.8125 3.3125 C-4.7825 5.7875 -4.7825 5.7875 -7.8125 8.3125 C-8.1425 7.3225 -8.4725 6.3325 -8.8125 5.3125 C-5.88314862 1.76177106 -4.6956049 0.38488565 0 0 Z " fill="#D39B57" transform="translate(201.8125,349.6875)"/>
<path d="M0 0 C-2.96687001 1.64826111 -5.65626525 2.44271087 -9 3 C-8.690625 4.918125 -8.690625 4.918125 -8.375 6.875 C-8.0234375 9.0546875 -8.0234375 9.0546875 -8 11 C-8.66 11.66 -9.32 12.32 -10 13 C-14.55555556 12.44444444 -14.55555556 12.44444444 -16 11 C-16.4375 8.1875 -16.4375 8.1875 -16 5 C-10.70902652 0.64964403 -6.71414699 -0.12668202 0 0 Z " fill="#D9A062" transform="translate(159,278)"/>
<path d="M0 0 C2 2 2 2 2.22705078 4.70556641 C2.21657715 5.82624512 2.20610352 6.94692383 2.1953125 8.1015625 C2.18886719 9.31328125 2.18242187 10.525 2.17578125 11.7734375 C2.15902344 13.04445312 2.14226562 14.31546875 2.125 15.625 C2.11597656 16.90375 2.10695312 18.1825 2.09765625 19.5 C2.07402303 22.66685167 2.04107629 25.83333424 2 29 C1.01 28.67 0.02 28.34 -1 28 C-1.02912348 24.27084983 -1.04684037 20.5417291 -1.0625 16.8125 C-1.07087891 15.75740234 -1.07925781 14.70230469 -1.08789062 13.61523438 C-1.09111328 12.59365234 -1.09433594 11.57207031 -1.09765625 10.51953125 C-1.10289307 9.58214111 -1.10812988 8.64475098 -1.11352539 7.67895508 C-1.00082657 5.01950523 -0.59376649 2.59079427 0 0 Z " fill="#1A2C1B" transform="translate(241,125)"/>
<path d="M0 0 C7.26 0 14.52 0 22 0 C22 0.33 22 0.66 22 1 C24.475 1.495 24.475 1.495 27 2 C27 2.33 27 2.66 27 3 C19.61343587 3.99479708 12.38444355 4.11836282 4.9375 4.0625 C3.78572266 4.05798828 2.63394531 4.05347656 1.44726562 4.04882812 C-1.36854518 4.03714426 -4.18424398 4.02076281 -7 4 C-7 3.67 -7 3.34 -7 3 C-4.36 2.67 -1.72 2.34 1 2 C0.67 1.34 0.34 0.68 0 0 Z " fill="#2B3B25" transform="translate(224,242)"/>
<path d="M0 0 C0.99 0 1.98 0 3 0 C1.15374351 4.8836462 -1.09591111 9.55775817 -3.375 14.25 C-3.76171875 15.07757813 -4.1484375 15.90515625 -4.546875 16.7578125 C-4.93101562 17.54414063 -5.31515625 18.33046875 -5.7109375 19.140625 C-6.05431152 19.85766602 -6.39768555 20.57470703 -6.75146484 21.31347656 C-8 23 -8 23 -10.14306641 23.74121094 C-10.75585449 23.82661133 -11.36864258 23.91201172 -12 24 C-10.42195846 18.39523177 -7.73583615 13.64949374 -4.875 8.625 C-4.17310547 7.37783203 -4.17310547 7.37783203 -3.45703125 6.10546875 C-2.30929451 4.06765046 -1.15686718 2.03264431 0 0 Z " fill="#C79354" transform="translate(270,332)"/>
<path d="M0 0 C3.92359339 3.67315125 6.87522245 7.4700475 9.75 12 C10.14832031 12.60328125 10.54664063 13.2065625 10.95703125 13.828125 C13.10968916 17.1848119 14.54744883 20.01754974 15 24 C14.01 24 13.02 24 12 24 C11.54109375 23.05898437 11.0821875 22.11796875 10.609375 21.1484375 C9.98980228 19.89051714 9.36999823 18.63271069 8.75 17.375 C8.44964844 16.75753906 8.14929688 16.14007813 7.83984375 15.50390625 C6.3117894 12.41528575 4.72311425 9.50363023 2.765625 6.6640625 C1 4 1 4 1 2 C0.34 2 -0.32 2 -1 2 C-0.690625 2.928125 -0.690625 2.928125 -0.375 3.875 C-0.25125 4.57625 -0.1275 5.2775 0 6 C-0.66 6.66 -1.32 7.32 -2 8 C-2.99 7.67 -3.98 7.34 -5 7 C-4.34 7 -3.68 7 -3 7 C-3.33 6.01 -3.66 5.02 -4 4 C-3.34 4 -2.68 4 -2 4 C-2 3.01 -2 2.02 -2 1 C-1.34 0.67 -0.68 0.34 0 0 Z " fill="#293121" transform="translate(281,152)"/>
<path d="M0 0 C0.99 0.33 1.98 0.66 3 1 C1.0147899 7.76776172 -0.86980801 13.91320534 -7 18 C-9.5625 18.25 -9.5625 18.25 -12 18 C-14 16 -14 16 -14.125 13.375 C-14.08375 12.59125 -14.0425 11.8075 -14 11 C-13.34 12.32 -12.68 13.64 -12 15 C-9.10949479 14.73920313 -9.10949479 14.73920313 -6 13 C-3.34592161 8.9486687 -1.52754553 4.58263658 0 0 Z " fill="#C99454" transform="translate(316,360)"/>
<path d="M0 0 C0.86625 0.5259375 0.86625 0.5259375 1.75 1.0625 C4.35801776 2.14917407 5.39417629 1.93065133 8 1 C8.66 2.65 9.32 4.3 10 6 C8.35 5.67 6.7 5.34 5 5 C4.67386719 5.5775 4.34773437 6.155 4.01171875 6.75 C3.57472656 7.4925 3.13773438 8.235 2.6875 9 C2.25824219 9.7425 1.82898438 10.485 1.38671875 11.25 C0.92910156 11.8275 0.47148437 12.405 0 13 C-0.99 13 -1.98 13 -3 13 C-2.45144652 8.428721 -1.58255197 4.32564205 0 0 Z " fill="#CC9655" transform="translate(235,349)"/>
<path d="M0 0 C0.66 0 1.32 0 2 0 C1.41892368 3.7602985 0.34800504 6.53035032 -1.5625 9.8125 C-2.01753906 10.60269531 -2.47257813 11.39289063 -2.94140625 12.20703125 C-3.46541016 13.09455078 -3.46541016 13.09455078 -4 14 C-5.32 14 -6.64 14 -8 14 C-8.33 9.71 -8.66 5.42 -9 1 C-8.01 1 -7.02 1 -6 1 C-5.67 3.64 -5.34 6.28 -5 9 C-3.35 6.03 -1.7 3.06 0 0 Z " fill="#D09956" transform="translate(218,348)"/>
<path d="M0 0 C6.30105704 4.9604066 11.05579131 10.71291981 16 17 C17.01900391 18.25490234 17.01900391 18.25490234 18.05859375 19.53515625 C18.67863281 20.30730469 19.29867188 21.07945312 19.9375 21.875 C20.48277344 22.55304688 21.02804687 23.23109375 21.58984375 23.9296875 C23.13237576 26.19434668 24.07275266 28.42879239 25 31 C24.34 31.33 23.68 31.66 23 32 C22.62230469 31.35675781 22.24460937 30.71351563 21.85546875 30.05078125 C16.57576359 21.38316223 10.22054284 13.94747615 3.55175781 6.35009766 C0 2.22470971 0 2.22470971 0 0 Z " fill="#796C3F" transform="translate(269,136)"/>
<path d="M0 0 C0.66 0 1.32 0 2 0 C2.27714844 0.71027344 2.55429688 1.42054688 2.83984375 2.15234375 C3.20207031 3.07144531 3.56429687 3.99054688 3.9375 4.9375 C4.29714844 5.85402344 4.65679687 6.77054687 5.02734375 7.71484375 C5.7996218 9.92418533 5.7996218 9.92418533 7 11 C8.51165654 11.39148761 10.03469632 11.73972457 11.5625 12.0625 C12.38878906 12.23910156 13.21507812 12.41570312 14.06640625 12.59765625 C14.70449219 12.73042969 15.34257812 12.86320312 16 13 C16 13.33 16 13.66 16 14 C10.32723489 14.29341888 7.00932754 14.00559652 2 11 C2 11.99 2 12.98 2 14 C1.34 14 0.68 14 0 14 C0 9.38 0 4.76 0 0 Z " fill="#C9975D" transform="translate(177,302)"/>
<path d="M0 0 C2.31 0 4.62 0 7 0 C6.06896676 2.32758311 5.34617872 3.74357132 3.3125 5.25 C0.05916498 6.30513568 -2.60187307 6.30340419 -6 6 C-8.4375 4.625 -8.4375 4.625 -10 3 C-10 2.34 -10 1.68 -10 1 C-6.7 1.33 -3.4 1.66 0 2 C0 1.34 0 0.68 0 0 Z " fill="#61793B" transform="translate(272,124)"/>
<path d="M0 0 C0.93457031 0.00966797 1.86914062 0.01933594 2.83203125 0.02929688 C3.80011719 0.05443359 4.76820313 0.07957031 5.765625 0.10546875 C7.24095703 0.12577148 7.24095703 0.12577148 8.74609375 0.14648438 C11.16982915 0.18178149 13.59244645 0.23108821 16.015625 0.29296875 C16.015625 0.95296875 16.015625 1.61296875 16.015625 2.29296875 C13.01546588 3.29302179 11.04138744 3.4087246 7.91015625 3.390625 C6.92724609 3.38740234 5.94433594 3.38417969 4.93164062 3.38085938 C3.90748047 3.37248047 2.88332031 3.36410156 1.828125 3.35546875 C0.79236328 3.35095703 -0.24339844 3.34644531 -1.31054688 3.34179688 C-3.86854766 3.33000885 -6.42643233 3.3135539 -8.984375 3.29296875 C-5.91718575 0.60141705 -4.06271993 -0.07431805 0 0 Z " fill="#8F783A" transform="translate(224.984375,232.70703125)"/>
<path d="M0 0 C0 0.33 0 0.66 0 1 C-2.99974538 1.48080596 -5.99977769 1.95968682 -9 2.4375 C-10.25876953 2.63956055 -10.25876953 2.63956055 -11.54296875 2.84570312 C-14.02721745 3.24048683 -16.51298819 3.6230435 -19 4 C-20.12341797 4.17619873 -20.12341797 4.17619873 -21.26953125 4.35595703 C-24.74649318 4.8583103 -27.65947807 5.25269572 -31 4 C-20.40389062 0.88104008 -11.06884521 -0.57252648 0 0 Z " fill="#415A33" transform="translate(309,234)"/>
<path d="M0 0 C3.3 0 6.6 0 10 0 C10 4.62 10 9.24 10 14 C9.34 14 8.68 14 8 14 C7.62875 12.14375 7.62875 12.14375 7.25 10.25 C6.31159197 6.45615038 5.0862862 4.50760754 2 2 C1.34 1.34 0.68 0.68 0 0 Z " fill="#E5A866" transform="translate(126,267)"/>
<path d="M0 0 C2.25 1.5625 2.25 1.5625 4 3 C1.03 2.67 -1.94 2.34 -5 2 C-4.4225 2.70125 -3.845 3.4025 -3.25 4.125 C-0.99507048 7.00629883 1.00502096 9.93628219 3 13 C2.01 13 1.02 13 0 13 C-2.1875 10.5 -2.1875 10.5 -4 8 C-4.66 8.66 -5.32 9.32 -6 10 C-6.66 6.7 -7.32 3.4 -8 0 C-3.2 -1.2 -3.2 -1.2 0 0 Z " fill="#364629" transform="translate(267,123)"/>
<path d="M0 0 C0.33 0 0.66 0 1 0 C0.67 10.56 0.34 21.12 0 32 C-0.33 32 -0.66 32 -1 32 C-1.33 26.39 -1.66 20.78 -2 15 C-2.99 15.495 -2.99 15.495 -4 16 C-4 11.05 -4 6.1 -4 1 C-3.01 1.495 -3.01 1.495 -2 2 C-2 4.64 -2 7.28 -2 10 C-1.34 10 -0.68 10 0 10 C0 6.7 0 3.4 0 0 Z " fill="#23331F" transform="translate(247,191)"/>
<path d="M0 0 C3.3 0 6.6 0 10 0 C9.21625 0.5775 8.4325 1.155 7.625 1.75 C3.36793487 5.39891297 2.74653487 8.52541092 2 14 C1.34 14 0.68 14 0 14 C0 9.38 0 4.76 0 0 Z " fill="#E8AA66" transform="translate(97,267)"/>
<path d="M0 0 C3 1 3 1 4.3515625 3.22265625 C6.89005943 8.88366015 8.88848182 13.75498171 9 20 C8.34 20.99 7.68 21.98 7 23 C6.82984375 22.23816406 6.6596875 21.47632813 6.484375 20.69140625 C5.08331657 14.72200306 3.4660613 9.25643996 0.76953125 3.7421875 C0 2 0 2 0 0 Z " fill="#86703F" transform="translate(293,167)"/>
<path d="M0 0 C0.66 0.33 1.32 0.66 2 1 C2 5.70781138 1.20171511 6.70934836 -2 10 C-4.25 10.8125 -4.25 10.8125 -6 11 C-5.62671065 5.64951939 -4.0042343 3.49087093 0 0 Z " fill="#997747" transform="translate(297,350)"/>
<path d="M0 0 C1.4540625 0.0309375 1.4540625 0.0309375 2.9375 0.0625 C3.2675 1.0525 3.5975 2.0425 3.9375 3.0625 C2.844375 3.145 1.75125 3.2275 0.625 3.3125 C-2.99379028 3.73416987 -2.99379028 3.73416987 -4.9375 5.6875 C-6.40022668 8.77547854 -6.73723607 11.67975514 -7.0625 15.0625 C-7.7225 15.0625 -8.3825 15.0625 -9.0625 15.0625 C-9.84984859 7.03154441 -9.84984859 7.03154441 -6.625 3.0625 C-5.779375 2.4025 -4.93375 1.7425 -4.0625 1.0625 C-3.0625 0.0625 -3.0625 0.0625 0 0 Z " fill="#7F2F34" transform="translate(274.0625,155.9375)"/>
<path d="M0 0 C-2.64 0.66 -5.28 1.32 -8 2 C-7.34 2.66 -6.68 3.32 -6 4 C-7.32 4 -8.64 4 -10 4 C-10 3.34 -10 2.68 -10 2 C-19.9 2 -29.8 2 -40 2 C-40 1.67 -40 1.34 -40 1 C-38.73724243 0.96241577 -38.73724243 0.96241577 -37.44897461 0.92407227 C-34.29733856 0.82839721 -31.14583774 0.72919924 -27.99438477 0.62768555 C-26.6357042 0.58462706 -25.27697959 0.54293435 -23.91821289 0.50268555 C-21.95447697 0.44427107 -19.99090636 0.38038197 -18.02734375 0.31640625 C-16.84906006 0.27974854 -15.67077637 0.24309082 -14.45678711 0.20532227 C-10.94870515 0.05307012 -10.94870515 0.05307012 -7.31079102 -0.58227539 C-4 -1 -4 -1 0 0 Z " fill="#6D6334" transform="translate(251,231)"/>
<path d="M0 0 C0 0.66 0 1.32 0 2 C-0.68964844 2.12117187 -1.37929688 2.24234375 -2.08984375 2.3671875 C-3.49943359 2.61855469 -3.49943359 2.61855469 -4.9375 2.875 C-5.9378125 3.05289063 -6.938125 3.23078125 -7.96875 3.4140625 C-11.36584431 4.07071733 -14.6933864 4.90583399 -18.02734375 5.828125 C-20.54815567 6.0477601 -21.86298822 5.28125091 -24 4 C-15.96170944 1.869853 -8.35586908 0 0 0 Z " fill="#3D4926" transform="translate(289,226)"/>
<path d="M0 0 C0.66 0 1.32 0 2 0 C1.67 0.99 1.34 1.98 1 3 C1.66 3.33 2.32 3.66 3 4 C1.55802132 6.88395737 -0.70644235 8.76525152 -3 11 C-3.99 10.67 -4.98 10.34 -6 10 C-5.49259538 5.60249328 -2.91706686 3.13051078 0 0 Z " fill="#C19052" transform="translate(315,352)"/>
<path d="M0 0 C3 0 3 0 4.6875 1.5 C5.120625 1.995 5.55375 2.49 6 3 C5.67 3.99 5.34 4.98 5 6 C4.67 5.34 4.34 4.68 4 4 C3.01 4.33 2.02 4.66 1 5 C0.67 5.99 0.34 6.98 0 8 C-0.33 8.99 -0.66 9.98 -1 11 C-1.99 11.33 -2.98 11.66 -4 12 C-4.3763524 8.0482998 -4.09508438 6.17705367 -2.1875 2.625 C-1.465625 1.75875 -0.74375 0.8925 0 0 Z " fill="#D89E58" transform="translate(225,349)"/>
<path d="M0 0 C1.2375 -0.04125 2.475 -0.0825 3.75 -0.125 C4.79414063 -0.15980469 4.79414063 -0.15980469 5.859375 -0.1953125 C8.30155975 0.02751458 9.88636771 0.79085 12 2 C11.32453125 2.39832031 10.6490625 2.79664063 9.953125 3.20703125 C8.61507812 4.00173828 8.61507812 4.00173828 7.25 4.8125 C6.36828125 5.33457031 5.4865625 5.85664063 4.578125 6.39453125 C2.28027203 7.82546696 0.13493054 9.33894423 -2 11 C-2.66 10.67 -3.32 10.34 -4 10 C-2.68 9.01 -1.36 8.02 0 7 C-0.99 6.01 -1.98 5.02 -3 4 C-2.04287109 3.92652344 -2.04287109 3.92652344 -1.06640625 3.8515625 C-0.24011719 3.77679688 0.58617187 3.70203125 1.4375 3.625 C2.26121094 3.55539063 3.08492187 3.48578125 3.93359375 3.4140625 C4.95646484 3.20910156 4.95646484 3.20910156 6 3 C6.33 2.34 6.66 1.68 7 1 C4.69 1 2.38 1 0 1 C0 0.67 0 0.34 0 0 Z " fill="#324927" transform="translate(227,207)"/>
<path d="M0 0 C0.66 0 1.32 0 2 0 C1.654156 3.11259604 1.12620033 4.82872813 -0.75 7.375 C-3 9 -3 9 -5.75 8.75 C-6.4925 8.5025 -7.235 8.255 -8 8 C-8.1875 5.625 -8.1875 5.625 -8 3 C-7.01 2.34 -6.02 1.68 -5 1 C-5 2.65 -5 4.3 -5 6 C-4.21625 5.01 -3.4325 4.02 -2.625 3 C-1.75875 2.01 -0.8925 1.02 0 0 Z " fill="#D39A57" transform="translate(273,353)"/>
<path d="M0 0 C1.5 1.0625 1.5 1.0625 3 3 C3.1875 6.6875 3.1875 6.6875 3 10 C2.67 10 2.34 10 2 10 C1.67 16.6 1.34 23.2 1 30 C0.67 30 0.34 30 0 30 C0 20.76 0 11.52 0 2 C-0.66 1.67 -1.32 1.34 -2 1 C-1.34 0.67 -0.68 0.34 0 0 Z " fill="#333D22" transform="translate(256,123)"/>
<path d="M0 0 C3.97594715 5.30126287 5.41643829 10.3369874 5 17 C4.34 15.68 3.68 14.36 3 13 C2.67 16.63 2.34 20.26 2 24 C1.67 24 1.34 24 1 24 C0.67 16.08 0.34 8.16 0 0 Z " fill="#474523" transform="translate(285,165)"/>
<path d="M0 0 C-2.02196167 2.02196167 -3.25864486 2.67551358 -5.875 3.6875 C-6.89207031 4.09548828 -6.89207031 4.09548828 -7.9296875 4.51171875 C-11.76136457 5.41541617 -14.6516503 3.79375877 -18 2 C-11.84629161 0.176679 -6.40353322 -0.2361959 0 0 Z " fill="#2A3924" transform="translate(269,231)"/>
<path d="M0 0 C0.99 0.33 1.98 0.66 3 1 C3.33 2.65 3.66 4.3 4 6 C3.34 6 2.68 6 2 6 C2.11859375 6.89203125 2.2371875 7.7840625 2.359375 8.703125 C2.48828125 9.87359375 2.6171875 11.0440625 2.75 12.25 C2.88921875 13.41015625 3.0284375 14.5703125 3.171875 15.765625 C3 19 3 19 1.015625 21.421875 C0.35046875 21.94265625 -0.3146875 22.4634375 -1 23 C-0.83628906 22.19304687 -0.67257812 21.38609375 -0.50390625 20.5546875 C0.08897993 16.37231212 0.10894252 12.34055182 0.0625 8.125 C0.05573242 6.949375 0.05573242 6.949375 0.04882812 5.75 C0.03714093 3.83329986 0.01920908 1.91663952 0 0 Z " fill="#7F262A" transform="translate(261,193)"/>
<path d="M0 0 C0.33 0 0.66 0 1 0 C1.33 4.29 1.66 8.58 2 13 C-2 11 -2 11 -3 10 C-4.51469448 9.76807135 -6.03754562 9.58784762 -7.5625 9.4375 C-8.38878906 9.35371094 -9.21507812 9.26992187 -10.06640625 9.18359375 C-10.70449219 9.12300781 -11.34257812 9.06242188 -12 9 C-12 8.67 -12 8.34 -12 8 C-5.375 6.875 -5.375 6.875 -2 8 C-1.34 5.36 -0.68 2.72 0 0 Z " fill="#2F4B2A" transform="translate(239,195)"/>
<path d="M0 0 C2.475 0.99 2.475 0.99 5 2 C5 1.34 5 0.68 5 0 C5.66 0 6.32 0 7 0 C7 3.63 7 7.26 7 11 C6.34 11 5.68 11 5 11 C4.566875 9.906875 4.13375 8.81375 3.6875 7.6875 C2.50504359 4.90591207 1.39199957 2.93638061 -1 1 C-0.67 0.67 -0.34 0.34 0 0 Z " fill="#DAA162" transform="translate(193,279)"/>
<path d="M0 0 C0.33 0.99 0.66 1.98 1 3 C0.2884375 3.61875 0.2884375 3.61875 -0.4375 4.25 C-2.16266518 6.182185 -2.56584875 7.48192275 -3 10 C-4.65 9.67 -6.3 9.34 -8 9 C-8 8.01 -8 7.02 -8 6 C-6.04690112 4.59886384 -4.04291182 3.26660533 -2 2 C-1.34 1.34 -0.68 0.68 0 0 Z " fill="#C18F52" transform="translate(200,352)"/>
<path d="M0 0 C0.82757813 0.42925781 0.82757813 0.42925781 1.671875 0.8671875 C4.15905289 2.07739151 6.67747753 3.1095306 9.25 4.125 C10.14203125 4.47820312 11.0340625 4.83140625 11.953125 5.1953125 C12.62859375 5.46085938 13.3040625 5.72640625 14 6 C13.01 6.33 12.02 6.66 11 7 C11 7.66 11 8.32 11 9 C6.39860359 7.51131293 3.49772906 5.25370145 0 2 C0 1.34 0 0.68 0 0 Z " fill="#706533" transform="translate(186,223)"/>
<path d="M0 0 C7.425 0.99 7.425 0.99 15 2 C14.67 2.99 14.34 3.98 14 5 C8.72250715 4.46148032 4.74354436 3.22656164 0 1 C0 0.67 0 0.34 0 0 Z " fill="#716936" transform="translate(204,236)"/>
<path d="M0 0 C0.33 0.66 0.66 1.32 1 2 C2.134375 1.814375 3.26875 1.62875 4.4375 1.4375 C6.2009375 1.2209375 6.2009375 1.2209375 8 1 C9 2 9 2 9.1875 5.4375 C9 9 9 9 7 11 C7 8.36 7 5.72 7 3 C5.02 3 3.04 3 1 3 C1 4.98 1 6.96 1 9 C0.67 9 0.34 9 0 9 C0 6.03 0 3.06 0 0 Z " fill="#5F2024" transform="translate(257,176)"/>
<path d="M0 0 C5.61 0.66 11.22 1.32 17 2 C17 2.33 17 2.66 17 3 C15.08416353 3.1958009 13.16727461 3.38132214 11.25 3.5625 C9.64898437 3.71912109 9.64898437 3.71912109 8.015625 3.87890625 C5.33550243 3.98652775 3.45725583 4.0506491 1 3 C0.67 2.01 0.34 1.02 0 0 Z " fill="#343F25" transform="translate(199,233)"/>
<path d="M0 0 C0.66 0 1.32 0 2 0 C2.84114171 1.43294498 3.67265687 2.87154405 4.5 4.3125 C5.19609375 5.51326172 5.19609375 5.51326172 5.90625 6.73828125 C7 9 7 9 7 12 C6.01 12 5.02 12 4 12 C3.32645501 10.56570999 2.66140299 9.12742943 2 7.6875 C1.62875 6.88699219 1.2575 6.08648437 0.875 5.26171875 C0 3 0 3 0 0 Z " fill="#172A1D" transform="translate(289,164)"/>
<path d="M0 0 C0.66 0 1.32 0 2 0 C3.65 2.97 5.3 5.94 7 9 C6.01 9.99 5.02 10.98 4 12 C1.57869669 9.57869669 1.47159496 8.19888623 0.875 4.875 C0.70742188 3.96492187 0.53984375 3.05484375 0.3671875 2.1171875 C0.24601562 1.41851562 0.12484375 0.71984375 0 0 Z " fill="#6E6136" transform="translate(280,154)"/>
<path d="M0 0 C0.33 0.66 0.66 1.32 1 2 C-0.07518118 4.44332726 -1.19808566 6.76754523 -2.4375 9.125 C-2.77587891 9.78371094 -3.11425781 10.44242187 -3.46289062 11.12109375 C-4.30149926 12.75106547 -5.14984811 14.37601909 -6 16 C-7 13 -7 13 -5.8203125 10.1171875 C-5.26085937 9.04726563 -4.70140625 7.97734375 -4.125 6.875 C-3.57070312 5.79992187 -3.01640625 4.72484375 -2.4453125 3.6171875 C-1 1 -1 1 0 0 Z " fill="#293529" transform="translate(193,339)"/>
<path d="M0 0 C1.65 0 3.3 0 5 0 C4.34 0.66 3.68 1.32 3 2 C2.3574765 4.06874034 2.3574765 4.06874034 2 6 C0.02 6.33 -1.96 6.66 -4 7 C-3.67 5.35 -3.34 3.7 -3 2 C-2.01 2 -1.02 2 0 2 C0 1.34 0 0.68 0 0 Z " fill="#992A2F" transform="translate(262,171)"/>
<path d="M0 0 C5.23435005 4.27293882 9.67106815 8.81580806 14 14 C13.34 14.66 12.68 15.32 12 16 C9.99397361 13.71336873 7.99508435 11.42114438 6 9.125 C5.14148438 8.14853516 5.14148438 8.14853516 4.265625 7.15234375 C3.72421875 6.52714844 3.1828125 5.90195313 2.625 5.2578125 C2.12226563 4.6817627 1.61953125 4.10571289 1.1015625 3.51220703 C0 2 0 2 0 0 Z " fill="#5D5736" transform="translate(269,136)"/>
<path d="M0 0 C0.86625 0.5259375 0.86625 0.5259375 1.75 1.0625 C4.35801776 2.14917407 5.39417629 1.93065133 8 1 C8.66 2.65 9.32 4.3 10 6 C3.84765625 5.4140625 3.84765625 5.4140625 2 5 C1.67 4.34 1.34 3.68 1 3 C0.01 3.495 0.01 3.495 -1 4 C-0.67 2.68 -0.34 1.36 0 0 Z " fill="#BB8C50" transform="translate(235,349)"/>
<path d="M0 0 C0 4.62 0 9.24 0 14 C-0.33 14 -0.66 14 -1 14 C-1.33 10.04 -1.66 6.08 -2 2 C-3.65 2.66 -5.3 3.32 -7 4 C-7.99 3.34 -8.98 2.68 -10 2 C-8.71211992 1.46987262 -7.41953322 0.9511671 -6.125 0.4375 C-5.40570313 0.14746094 -4.68640625 -0.14257812 -3.9453125 -0.44140625 C-2 -1 -2 -1 0 0 Z " fill="#C3935B" transform="translate(161,294)"/>
<path d="M0 0 C0.66 0 1.32 0 2 0 C2 4.29 2 8.58 2 13 C1.01 12.67 0.02 12.34 -1 12 C-0.67 8.04 -0.34 4.08 0 0 Z " fill="#A6823E" transform="translate(284,175)"/>
<path d="M0 0 C0.33 0.99 0.66 1.98 1 3 C-0.4375 5.1875 -0.4375 5.1875 -2 7 C-3.32 6.67 -4.64 6.34 -6 6 C-5.8125 4.125 -5.8125 4.125 -5 2 C-2.4375 0.75 -2.4375 0.75 0 0 Z " fill="#BA8B50" transform="translate(282,371)"/>
<path d="M0 0 C3.44679015 2.98721813 5.15162747 5.4753465 6 10 C4.625 12.375 4.625 12.375 3 14 C1.79534844 9.34201396 0.71452588 4.76350585 0 0 Z " fill="#90763A" transform="translate(286,163)"/>
<path d="M0 0 C3.44428265 1.44781793 5.36130962 3.27694609 7.75 6.125 C8.36359375 6.84945312 8.9771875 7.57390625 9.609375 8.3203125 C10.29773438 9.15175781 10.29773438 9.15175781 11 10 C10.34 10.66 9.68 11.32 9 12 C8.60167969 11.52949219 8.20335937 11.05898437 7.79296875 10.57421875 C7.26316406 9.95160156 6.73335937 9.32898438 6.1875 8.6875 C5.66542969 8.07261719 5.14335937 7.45773438 4.60546875 6.82421875 C3.03698755 4.9856727 3.03698755 4.9856727 1.30078125 3.39453125 C0 2 0 2 0 0 Z " fill="#4D633B" transform="translate(249,114)"/>
<path d="M0 0 C-0.66 3.3 -1.32 6.6 -2 10 C-2.66 9.67 -3.32 9.34 -4 9 C-3.67 7.68 -3.34 6.36 -3 5 C-3.99 4.67 -4.98 4.34 -6 4 C-2.25 0 -2.25 0 0 0 Z " fill="#D79D58" transform="translate(321,351)"/>
<path d="M0 0 C-1.70828921 2.10633718 -2.52148416 2.93801608 -5.26171875 3.29296875 C-6.06222656 3.25816406 -6.86273438 3.22335938 -7.6875 3.1875 C-8.49574219 3.16042969 -9.30398437 3.13335937 -10.13671875 3.10546875 C-10.75160156 3.07066406 -11.36648437 3.03585938 -12 3 C-11 1 -11 1 -9.2578125 0.33203125 C-8.55398437 0.16058594 -7.85015625 -0.01085937 -7.125 -0.1875 C-6.42632812 -0.36667969 -5.72765625 -0.54585937 -5.0078125 -0.73046875 C-3 -1 -3 -1 0 0 Z " fill="#917E3C" transform="translate(254,231)"/>
<path d="M0 0 C0.66 0.33 1.32 0.66 2 1 C2.99 1.33 3.98 1.66 5 2 C3.6875 3.5 3.6875 3.5 2 5 C1.01 5 0.02 5 -1 5 C-1.66 6.32 -2.32 7.64 -3 9 C-3.26218749 5.85375007 -3.24754367 4.38162983 -1.5 1.6875 C-1.005 1.130625 -0.51 0.57375 0 0 Z " fill="#9C7A48" transform="translate(325,351)"/>
<path d="M0 0 C0.99 0 1.98 0 3 0 C2.67 2.64 2.34 5.28 2 8 C1.01 8 0.02 8 -1 8 C-1.125 2.25 -1.125 2.25 0 0 Z " fill="#CA9555" transform="translate(222,353)"/>
<path d="M0 0 C1.6396875 0.0928125 1.6396875 0.0928125 3.3125 0.1875 C3.3125 0.8475 3.3125 1.5075 3.3125 2.1875 C0.0125 2.5175 -3.2875 2.8475 -6.6875 3.1875 C-3.6875 0.1875 -3.6875 0.1875 0 0 Z " fill="#7D7F3A" transform="translate(270.6875,232.8125)"/>
<path d="M0 0 C-1.20703125 1.51953125 -1.20703125 1.51953125 -3 3 C-5.26171875 3.07421875 -5.26171875 3.07421875 -7.6875 2.6875 C-8.89986328 2.50767578 -8.89986328 2.50767578 -10.13671875 2.32421875 C-10.75160156 2.21722656 -11.36648438 2.11023438 -12 2 C-12 1.67 -12 1.34 -12 1 C-10.56496445 0.63597631 -9.12683494 0.28413409 -7.6875 -0.0625 C-6.88699219 -0.25972656 -6.08648437 -0.45695313 -5.26171875 -0.66015625 C-3 -1 -3 -1 0 0 Z " fill="#6A7539" transform="translate(279,231)"/>
<path d="M0 0 C1.98362069 2.91708924 1.9876191 4.12380904 1.625 7.75 C1.41875 8.8225 1.2125 9.895 1 11 C0.34 11 -0.32 11 -1 11 C-1.0270043 9.54176788 -1.04639787 8.08339325 -1.0625 6.625 C-1.07410156 5.81289062 -1.08570313 5.00078125 -1.09765625 4.1640625 C-1 2 -1 2 0 0 Z " fill="#6E2E2D" transform="translate(266,160)"/>
<path d="M0 0 C0.99 0.33 1.98 0.66 3 1 C2.51789063 1.39832031 2.03578125 1.79664063 1.5390625 2.20703125 C0.59160156 3.00173828 0.59160156 3.00173828 -0.375 3.8125 C-1.00148438 4.33457031 -1.62796875 4.85664063 -2.2734375 5.39453125 C-4.2221048 7.08225739 -4.2221048 7.08225739 -6 10 C-5.73334769 6.08909938 -5.40818918 4.418931 -2.625 1.5625 C-1.75875 1.046875 -0.8925 0.53125 0 0 Z " fill="#21221F" transform="translate(273,158)"/>
<path d="M0 0 C7.57142857 4.14285714 7.57142857 4.14285714 10 7 C9.01 7.495 9.01 7.495 8 8 C6.66102417 7.04956626 5.32894573 6.08940853 4 5.125 C3.2575 4.59132812 2.515 4.05765625 1.75 3.5078125 C1.1725 3.01023438 0.595 2.51265625 0 2 C0 1.34 0 0.68 0 0 Z " fill="#405334" transform="translate(179,232)"/>
<path d="M0 0 C0.99 0 1.98 0 3 0 C1.92598892 2.91517292 1.22189824 4.77810176 -1 7 C-1.66 7 -2.32 7 -3 7 C-1.125 2.25 -1.125 2.25 0 0 Z " fill="#C49253" transform="translate(270,332)"/>
<path d="M0 0 C-1.49097658 3.7952131 -3.75700849 5.61042731 -7 8 C-4.18918919 0 -4.18918919 0 0 0 Z " fill="#1C2D26" transform="translate(317,352)"/>
<path d="M0 0 C2.875 0.25 2.875 0.25 6 1 C7.375 3.0625 7.375 3.0625 8 5 C2.25 3.375 2.25 3.375 0 0 Z " fill="#556E3A" transform="translate(188,239)"/>
<path d="M0 0 C0.66 0 1.32 0 2 0 C1.60196439 2.88575819 1.20990931 3.82189513 -1.0625 5.75 C-1.701875 6.1625 -2.34125 6.575 -3 7 C-2.25 2.25 -2.25 2.25 0 0 Z " fill="#1E2E27" transform="translate(270,353)"/>
<path d="M0 0 C0.556875 0.28875 1.11375 0.5775 1.6875 0.875 C4.08494645 2.0413253 6.51596939 3.0339881 9 4 C7.02 4.99 7.02 4.99 5 6 C3.2925002 4.71937515 1.62626404 3.38232443 0 2 C0 1.34 0 0.68 0 0 Z " fill="#585735" transform="translate(186,223)"/>
<path d="M0 0 C0.33 0.66 0.66 1.32 1 2 C1.66 2.33 2.32 2.66 3 3 C1.02 4.32 -0.96 5.64 -3 7 C-2.38722388 4.03824877 -1.74627478 2.61941217 0 0 Z " fill="#282B24" transform="translate(264,211)"/>
<path d="M0 0 C2.72426311 2.35277269 3.8141763 4.62496331 5 8 C4.01 8.495 4.01 8.495 3 9 C0.70620251 5.55930376 0 4.27709699 0 0 Z " fill="#7D6537" transform="translate(289,159)"/>
<path d="M0 0 C0.2475 0.639375 0.495 1.27875 0.75 1.9375 C1.81562433 4.18741541 1.81562433 4.18741541 4.125 4.75 C4.74375 4.8325 5.3625 4.915 6 5 C5.34 5 4.68 5 4 5 C4 5.66 4 6.32 4 7 C2.68 6.34 1.36 5.68 0 5 C0 3.35 0 1.7 0 0 Z " fill="#B7894F" transform="translate(302,371)"/>
<path d="M0 0 C0.33 0.99 0.66 1.98 1 3 C-1.97 5.475 -1.97 5.475 -5 8 C-3.8141763 4.62496331 -2.72426311 2.35277269 0 0 Z " fill="#32392C" transform="translate(200,352)"/>
<path d="M0 0 C-1.50663783 3.01327566 -4.03166411 3.61056618 -7 5 C-7.33 4.01 -7.66 3.02 -8 2 C-5.09399739 0.74335022 -3.20395416 0 0 0 Z " fill="#CA975D" transform="translate(161,310)"/>
<path d="M0 0 C-3.96 1.98 -3.96 1.98 -8 4 C-8.33 3.01 -8.66 2.02 -9 1 C-3.375 -1.125 -3.375 -1.125 0 0 Z " fill="#C5945B" transform="translate(368,295)"/>
<path d="M0 0 C2 4 2 4 1.25 6.6875 C0 9 0 9 -2 10 C-1.34 6.7 -0.68 3.4 0 0 Z " fill="#882E2B" transform="translate(262,206)"/>
</svg>
